<?xml version="1.0" encoding="utf-8"?>
<!-- Generator: Adobe Illustrator 23.0.5, SVG Export Plug-In . SVG Version: 6.00 Build 0)  -->
<svg version="1.1" id="OBJECTS" xmlns="http://www.w3.org/2000/svg" xmlns:xlink="http://www.w3.org/1999/xlink" x="0px" y="0px"
	 viewBox="0 0 774 334.8" style="enable-background:new 0 0 774 334.8;" xml:space="preserve">
<style type="text/css">
	.st0{clip-path:url(#SVGID_2_);fill:#FFFFE9;}
	.st1{clip-path:url(#SVGID_2_);fill:#FFF9DE;}
	.st2{opacity:0.3;clip-path:url(#SVGID_2_);fill:url(#SVGID_3_);enable-background:new    ;}
	.st3{opacity:0.4;clip-path:url(#SVGID_2_);}
	.st4{opacity:0.4;fill:url(#SVGID_4_);enable-background:new    ;}
	.st5{fill:url(#SVGID_5_);}
	.st6{opacity:0.3;clip-path:url(#SVGID_2_);fill:url(#SVGID_6_);enable-background:new    ;}
	.st7{clip-path:url(#SVGID_2_);fill:#B0D6D2;}
	.st8{clip-path:url(#SVGID_2_);fill:url(#SVGID_7_);}
	.st9{clip-path:url(#SVGID_2_);fill:url(#SVGID_8_);}
	.st10{clip-path:url(#SVGID_2_);fill:url(#SVGID_9_);}
	.st11{opacity:0.5;clip-path:url(#SVGID_2_);fill:url(#SVGID_10_);enable-background:new    ;}
	.st12{opacity:0.3;clip-path:url(#SVGID_2_);fill:url(#SVGID_11_);enable-background:new    ;}
	.st13{opacity:0.6;clip-path:url(#SVGID_2_);fill:url(#SVGID_12_);enable-background:new    ;}
	.st14{clip-path:url(#SVGID_2_);fill:url(#SVGID_13_);}
	.st15{clip-path:url(#SVGID_2_);fill:url(#SVGID_14_);}
	.st16{clip-path:url(#SVGID_2_);fill:url(#SVGID_15_);}
	.st17{clip-path:url(#SVGID_2_);fill:url(#SVGID_16_);}
	.st18{clip-path:url(#SVGID_2_);fill:url(#SVGID_17_);}
	.st19{clip-path:url(#SVGID_2_);fill:url(#SVGID_18_);}
	.st20{opacity:0.4;clip-path:url(#SVGID_2_);fill:url(#SVGID_19_);enable-background:new    ;}
	.st21{opacity:0.5;clip-path:url(#SVGID_2_);fill:url(#SVGID_20_);enable-background:new    ;}
	.st22{clip-path:url(#SVGID_2_);fill:url(#SVGID_21_);}
	.st23{clip-path:url(#SVGID_2_);fill:url(#SVGID_22_);}
	.st24{clip-path:url(#SVGID_2_);fill:#508E83;}
	.st25{clip-path:url(#SVGID_2_);fill:#76A396;}
	.st26{clip-path:url(#SVGID_2_);fill:#4F8472;}
	.st27{opacity:0.3;clip-path:url(#SVGID_2_);fill:url(#SVGID_23_);enable-background:new    ;}
	.st28{clip-path:url(#SVGID_2_);fill:#447F6B;}
	.st29{opacity:0.3;clip-path:url(#SVGID_2_);fill:url(#SVGID_24_);enable-background:new    ;}
	.st30{clip-path:url(#SVGID_2_);fill:#FFFFEB;}
	.st31{clip-path:url(#SVGID_2_);fill:none;}
</style>
<title>Mesa de trabajo 1</title>
<g>
	<defs>
		<rect id="SVGID_1_" x="0" width="769.5" height="334.4"/>
	</defs>
	<clipPath id="SVGID_2_">
		<use xlink:href="#SVGID_1_"  style="overflow:visible;"/>
	</clipPath>
	<path class="st0" d="M593.6,68.9c0,33.1-26.9,60-60,60s-60-26.9-60-60s26.9-60,60-60S593.6,35.8,593.6,68.9z"/>
	<path class="st1" d="M774,275.1c-34-32.8-121.2-56.2-223.4-56.2c-131.8,0-238.7,38.8-238.7,86.8s106.9,86.8,238.7,86.8
		c102.2,0,189.4-23.4,223.4-56.2V275.1z"/>
	
		<linearGradient id="SVGID_3_" gradientUnits="userSpaceOnUse" x1="433.2609" y1="981.8345" x2="571.205" y2="981.8345" gradientTransform="matrix(1 0 0 1 0 -664)">
		<stop  offset="0" style="stop-color:#83C1C4"/>
		<stop  offset="1" style="stop-color:#97AFAF"/>
	</linearGradient>
	<path class="st2" d="M524.2,298.4c-7.7-0.5-16.1,0.3-23.9,0.3c-17.3,0.1-34.6,1.7-51.7,4.9c-6.5,1.2-17.4,3.7-15,10.9
		c2.6,7.8,10.6,9.7,17.4,14.3c8.4,5.6,13.9,11.9,25,11.1c9.7-0.7,20.9-3.7,29.8-6.8c11.2-4,22.2-8.7,32.8-14c4.2-2,7.9-4,12.4-5.2
		c3.5-0.7,6.8-2,9.8-3.8c4.8-3.3,10.6-8.7,10.4-14.4L524.2,298.4z"/>
	<g class="st3">
		
			<linearGradient id="SVGID_4_" gradientUnits="userSpaceOnUse" x1="380.5894" y1="918.2" x2="578.2" y2="918.2" gradientTransform="matrix(1 0 0 1 0 -664)">
			<stop  offset="0" style="stop-color:#83C1C4"/>
			<stop  offset="1" style="stop-color:#97AFAF"/>
		</linearGradient>
		<path class="st4" d="M537.9,243.8c-12.1-1.4-23.4-4.8-35.9-5.2c-15.1-0.4-30.3,0-45.4,0h-30c-12.6,0-24.9-0.4-37.2,2.2
			c-3.4,0.7-6.4,0.8-7.9,3.9c-2.3,4.7,0.2,13.7,2.6,17.6c3.1,5,5.8,5.3,12,6.3c20.6,3.1,42.7,0,63.5,0c18.3,0,36.3-1.4,52.7-8.5
			c5.5-2.4,8.2-4.5,14.6-4.5c5.5,0,7.4-0.2,11.9-2.7c4.5-2.5,9.4-3.9,14.5-4.2c3-0.2,6-0.4,9.1-0.4c5.2,0,10.8-2,15.8-1.8
			L537.9,243.8z"/>
		
			<linearGradient id="SVGID_5_" gradientUnits="userSpaceOnUse" x1="578.15" y1="910.3458" x2="579.39" y2="910.3458" gradientTransform="matrix(1 0 0 1 0 -664)">
			<stop  offset="0" style="stop-color:#83C1C4"/>
			<stop  offset="1" style="stop-color:#97AFAF"/>
		</linearGradient>
		<path class="st5" d="M578.1,246.3l1.2,0.1C578.9,246.3,578.5,246.3,578.1,246.3z"/>
	</g>
	
		<linearGradient id="SVGID_6_" gradientUnits="userSpaceOnUse" x1="546.2708" y1="965.0115" x2="808.4107" y2="965.0115" gradientTransform="matrix(1 0 0 1 0 -664)">
		<stop  offset="0" style="stop-color:#83C1C4"/>
		<stop  offset="1" style="stop-color:#97AFAF"/>
	</linearGradient>
	<path class="st6" d="M772.9,250.5c-18.4-2.1-37.2-3.3-55.4-6.5c-24-4.2-51-1.6-75.4-1.6c-13.3,0-26.3,0.1-39.5,1.2
		c-16,1.3-29.7,5.8-44.7,9.2l-11.5,0.4c-1.2,2,6.3,10,8.4,12.2c4.2,4.4,10.4,6.2,17,7.3c6.1,1.1,13.4,0.9,19.1,2.6
		c4.3,1.3,7.7,4.9,11.5,6.9c3.1,1.7,9.5,3.3,11.5,6c3.2,4.4,1.3,8.3,7.5,11.2c2.7,1.3,6.5,1.7,8.9,3.1c2.8,1.6,5.4,4.5,7.7,6.7
		c7.3,7,14.2,13.6,24.2,17.6c11.4,4.6,20.9,12.6,32.6,17.1s26.7,8.1,39.2,9.9c13.1,1.9,26.7,7.5,39.1,6.5V250.5H772.9z"/>
	<path class="st7" d="M574.6,128c-5.4-1.1-10.6-2.5-16-3.7c-12.7-2.9-24.1-7.1-36-11.4c-9.2-3.3-19.3-4.2-28.5-8.2
		c-4.7-2.1-6-3.4-11.6-0.6c-1.4,0.7-1.1,2.9-2.5,3.5c-1.1,0.5-3-0.4-4,0.1c-2,1-3.9,0.7-5.3,2.9c-8.5-4.2-14.2-11-24.5-4.5
		c-7.5,4.6-10.7,13.3-20.2,14.3c-5.2,0.5-10.1-0.7-14.7-1.1c-5.6-0.5-8.6,2.2-14.7,2.8c-6.8,0.6-9.1,1.4-15.3,3.5
		c-5,1.6-10.2,2.6-15.5,3c-6,0.5-10.5,1.7-15.9,1.7c-5.9,0-11.7-1-17.5-1.7c-11.5-1.3-22-4.6-33.2-6.9c-9.8-2-19.6-3.3-29.3-5.8
		c-4.7-1.2-9.2-4.1-14-4.6c-6.3-0.7-8.8,3.2-14,4.6c-11.5,3.1-20.2,0.1-31.3-2.3c-10.5-2.3-20.4-4.6-30.2-8.5
		c-5.2-2.1-8.2-4.1-13.8-4.8c-5.3-0.7-11.6-0.8-16.7-2.3c-9.6-2.7-16.5-12.2-25.2-16.3c-4.4-2-9.4-2.3-14.1-1
		c-5.1,1.7-7.1,6.8-12,9.3c-4.3,2.2-10.7,1.5-14.8,3.9c-5.1,3-5.8,6.2-11.8,8.1c-6.7,2.1-8-0.1-14.6-0.5c-6.1-0.4-9.7,3.1-14.7,4.7
		c-3.6,1.1-5.1,1.1-8.7,2.9c-3.2,1.6-3.3,2.2-7.3,2.9c-5.2,0.9-11,0.1-16,1.2L0,154v41.8c47.6-0.9,208.8-2.4,229.9,2
		c8.9,1.8,17.6,5.3,26.7,5.8c7.5,0.4,15.1-0.7,22.6-0.6c19.4,0.1,37.3-0.2,56.5-2.5c18-2.1,35.3-6.3,52.7-10.9
		c23.4-6.3,45.1-15.6,69-20.7c20.2-4.3,40.3-7.4,60.5-11.1c21.4-3.9,40.5-11.7,58.7-22C586.2,130.3,583.6,129.8,574.6,128z"/>
	
		<linearGradient id="SVGID_7_" gradientUnits="userSpaceOnUse" x1="387" y1="917.4074" x2="387" y2="751.1974" gradientTransform="matrix(1 0 0 1 0 -664)">
		<stop  offset="0.24" style="stop-color:#BCD4D4"/>
		<stop  offset="0.93" style="stop-color:#A7CACA"/>
		<stop  offset="1" style="stop-color:#A4C9C9"/>
	</linearGradient>
	<path class="st8" d="M774,157.5l-0.4-1.1c-6.6-1.2-12.6-4.9-19.4-6.2s-14.5-2.6-21.1-3.8c-14.4-2.6-26-7.2-38.7-14.1
		c-11.3-6.1-25.4-11.5-36.2-19c-10.2-7.1-20.9-16.1-32.1-21.7c-5.5-2.7-14.3-5.8-20.6-4.1c-3.6,1-4,3.6-6.9,4.6
		c-5.9,2-5.1,0.1-8.6,0c-8.8-0.2-10,0.7-16.3,6.7c-5.2,4.9-8.8,6.7-15.8,9.3c-7.3,2.7-11.1,6.7-17.7,10.2c-5.6,2.9-14.6,5-20.9,7.5
		c-13.3,5.4-27.6,7.8-41.2,12.8c-9.3,3.4-13.7,5.7-24.2,3.7c-9.2-1.7-12.5-5.5-21.4-3.5c-8.7,1.9-9.2,4.5-18.6-0.6
		c-5.5-3-11.3-6.5-16.3-9.7c-11.2-7.3-31.3-20.7-45.6-21.9c-16.6-1.4-17.5,10-32.5,14.2c-11,3.1-26.5,1.1-36.6,7.7
		c-4.6,3.1-9.4,6-14.4,8.6c-6.4,3.3-7.8,7.3-13.1,11.5c-15.1,12.2-67.6-19.3-73.7-1.1c-15.8,0.7-30.4-2.7-45.7-6
		s-27.2-10.8-40.5-16.1c-6.5-2.6-13.1-4.4-19.8-7.5c-5.4-2.5-15.7-6.6-21.4-3.8c-3.2,1.6-9.9,10.7-12.3,13c-5.6,5.7-8.1,7.3-16.2,10
		c-7.3,2.4-14.8,6.5-22.2,7.9L0,145.6v102.8c9.7,3.5,22.6,4,32.1,4.4c23.7,1.1,47.4,0.7,71.1-1.1c50.5-4,100.4-5.1,151.1-5.1
		c69.2,0,138.2-2.9,207.3-4.4c63.2-1.4,126.5,1.1,189.7,0.9c42.3-0.1,81.6,0.4,122.6-4.7v-80.9H774z"/>
	
		<linearGradient id="SVGID_8_" gradientUnits="userSpaceOnUse" x1="175.35" y1="917.3074" x2="175.35" y2="770.3586" gradientTransform="matrix(1 0 0 1 0 -664)">
		<stop  offset="0.24" style="stop-color:#BCD4D4"/>
		<stop  offset="0.58" style="stop-color:#A7CBCB"/>
		<stop  offset="1" style="stop-color:#86BDBD"/>
	</linearGradient>
	<path class="st9" d="M286.9,176.1c2-2.6,9-2.6,11-6.9c4-12.1,10-25.1,28-21.7c1,0,3-1.7,3-2.6c-3-12.1,7-15.6,16-22.5
		c2-1.7,0-6.9,1-10.4c0.6-2.6,2.4-4.7,4.9-5.6c-15.6-0.8-16.8,10.2-31.4,14.3c-11,3.1-26.5,1.1-36.6,7.7c-4.6,3.1-9.4,6-14.4,8.6
		c-6.4,3.3-7.8,7.3-13.1,11.5c-15.1,12.2-67.6-19.3-73.7-1.1c-15.8,0.7-30.4-2.7-45.7-6s-27.2-10.8-40.5-16.1
		c-6.5-2.6-13.1-4.4-19.8-7.5c-5.4-2.5-15.7-6.6-21.4-3.8c-3.2,1.6-9.9,10.7-12.3,13c-5.6,5.7-8.1,7.3-16.2,10
		c-7.3,2.4-14.8,6.5-22.2,7.9l-3.6,0.6v102.8c9.7,3.5,22.6,4,32.1,4.4c23.7,1.1,47.4,0.7,71.1-1.1c29.5-2.3,58.7-3.7,88.1-4.4
		C231.2,234.8,266.3,210.1,286.9,176.1z"/>
	
		<linearGradient id="SVGID_9_" gradientUnits="userSpaceOnUse" x1="401.9614" y1="911.2" x2="401.9614" y2="751.024" gradientTransform="matrix(1 0 0 1 0 -664)">
		<stop  offset="0.24" style="stop-color:#BCD4D4"/>
		<stop  offset="0.58" style="stop-color:#A7CBCB"/>
		<stop  offset="1" style="stop-color:#86BDBD"/>
	</linearGradient>
	<path class="st10" d="M611.2,87.1c-1.9-0.2-3.8,0-5.6,0.4c-3.6,1-4,3.6-6.9,4.6c-5.9,2-5.1,0.1-8.6,0c-8.8-0.2-10,0.7-16.3,6.7
		c-5.2,4.9-8.8,6.7-15.8,9.3c-7.3,2.7-11.1,6.7-17.7,10.2c-5.6,2.9-14.6,5-20.9,7.5c-13.3,5.4-27.6,7.8-41.2,12.8
		c-9.3,3.4-13.7,5.7-24.2,3.7c-9.2-1.7-12.5-5.5-21.4-3.5c-8.7,1.9-9.2,4.5-18.6-0.6c-5.5-3-11.3-6.5-16.3-9.7
		c-11.2-7.3-31.3-20.7-45.6-21.9c-0.4,0-0.7,0-1.1-0.1c-2.5,0.9-4.3,3-4.9,5.6c-1,3.5,1,8.7-1,10.4c-9,6.9-19,10.4-16,22.5
		c0,0.9-2,2.6-3,2.6c-18-3.5-24,9.5-28,21.7c-2,4.3-9,4.3-11,6.9c-20.6,33.9-55.6,58.7-95.6,71c20.9-0.5,41.9-0.7,63-0.7
		c55.5,0,110.8-1.8,166.2-3.4c10.6-7.2,19.9-16.3,30.4-24.5c2-2.6,8-0.9,12-3.5c12-6.9,22-13,35-18.2c11-4.3,18-13.9,28-20.8
		c2-1.7,6-1.7,6-2.6c6-6.9,2-19.1,12-19.9c12-0.9,20-8.7,26-16.5c4-5.2,16-2.6,18-9.5c2-8.7,4-19.1,16-19.9c1,0,3-2.6,3-5.2h5
		C613.7,97.6,608.7,92.1,611.2,87.1z"/>
	
		<radialGradient id="SVGID_10_" cx="606.3411" cy="400.7124" r="96.7" gradientTransform="matrix(1.22 0.55 -0.29 0.48 -158.26 -321.63)" gradientUnits="userSpaceOnUse">
		<stop  offset="0" style="stop-color:#FFFFFF"/>
		<stop  offset="1" style="stop-color:#FFFFFF;stop-opacity:0"/>
	</radialGradient>
	<path class="st11" d="M582.7,256.6c-15.3,25.6-80.6,22.6-145.9-6.7s-105.9-73.8-90.6-99.3s80.6-22.6,145.9,6.7S598,231,582.7,256.6
		z"/>
	
		<radialGradient id="SVGID_11_" cx="525.07" cy="-114.74" r="96.7" gradientTransform="matrix(1 0 0 -1 0 336)" gradientUnits="userSpaceOnUse">
		<stop  offset="0" style="stop-color:#FFFFFF"/>
		<stop  offset="1" style="stop-color:#FFFFFF;stop-opacity:0"/>
	</radialGradient>
	<path class="st12" d="M457.3,256.8c-15.3,25.6-80.6,22.6-145.9-6.7s-105.9-73.8-90.6-99.3s80.6-22.6,145.9,6.7
		S472.6,231.2,457.3,256.8z"/>
	
		<radialGradient id="SVGID_12_" cx="213.2029" cy="1323.3534" r="96.6744" gradientTransform="matrix(1.22 -0.56 0.29 0.48 5.92 -312.86)" gradientUnits="userSpaceOnUse">
		<stop  offset="0" style="stop-color:#FFFFFF"/>
		<stop  offset="1" style="stop-color:#FFFFFF;stop-opacity:0"/>
	</radialGradient>
	<path class="st13" d="M766.2,151.1c15.5,25.5-24.6,70.2-89.7,100s-130.3,33.2-145.8,7.7s24.6-70.2,89.7-100
		S750.7,125.7,766.2,151.1z"/>
	
		<linearGradient id="SVGID_13_" gradientUnits="userSpaceOnUse" x1="444.65" y1="914.64" x2="444.65" y2="818.74" gradientTransform="matrix(1 0 0 1 0 -664)">
		<stop  offset="0" style="stop-color:#A4C9C9"/>
		<stop  offset="0.5" style="stop-color:#9AC8C5"/>
		<stop  offset="0.99" style="stop-color:#8BC6C0"/>
	</linearGradient>
	<path class="st14" d="M537.7,237.7c-8.1-3.3-9.7-12.5-20.7-13.5c-2.1-0.2-4.3,1-6.5,0.3c-2-0.7-2.9-3.2-4.8-4
		c-3.5-1.3-9.7-0.4-13.3-1c-2-0.3-3-1.3-5.1-1.5c-2.5-0.2-4.3,1.9-6.7,0.9c-3.5-1.4-4.6-7.5-3.6-10.6c-6.2-5.5-13.1-1.7-19.7-4.3
		c-3.7-1.5-5.2-3.9-7.6-5.5c-3.3-2-6.9-3.5-10.6-4.4c0.6-8.6-10.4-8.2-14.9-12c-2.5-2.1-2.8-4-6.6-6c-3.1-1.6-5.9-3.7-8.4-6.1
		c-4.2-3.9-9.2-11.4-15.3-12.1c-3.6-0.4-6.4,2.8-8.8,2.6c-3.2-0.3-5.7-4.2-7.7-6.1c-3.2,2.6-6.9,4.1-10.1,6.7
		c-1.1,0.9-3.8,4-4.9,4.4c-2.5,1-5.1-0.3-5.6-0.1c-4.6,1.5-6.2,6.5-9.5,10.6c-3.8,4.8-8.1,9.2-12.8,13c-7.8,6.3-15.9,9.5-24,15.2
		c-6.4,4.5-12.7,9.5-18.8,14.4c-4.7,3.7-13.5,8.8-16,13.9c-0.6,1-1.3,1.9-2,2.8c3.7,4.8,20.1,3.6,26.6,3.8
		c10.3,0.4,19.8,2.2,29.7,3.3c11.3,1.3,23.9,0,34.6,3.1c6.7,1.9,22.6,1.3,27.3,4.8l223.7-5.7C607.8,244.5,544.3,240.3,537.7,237.7z"
		/>
	
		<linearGradient id="SVGID_14_" gradientUnits="userSpaceOnUse" x1="376.05" y1="914.6" x2="376.05" y2="818.7" gradientTransform="matrix(1 0 0 1 0 -664)">
		<stop  offset="0" style="stop-color:#A4C9C9"/>
		<stop  offset="0.26" style="stop-color:#9AC6C6"/>
		<stop  offset="0.7" style="stop-color:#7EBFBE"/>
		<stop  offset="0.99" style="stop-color:#68B9B7"/>
	</linearGradient>
	<path class="st15" d="M410.1,210.8c0-0.9-2-2.6-1-3.5c9-6.9,6-14.7,0-22.5c-1-0.9-4,1.7-5,0.9c-3-5.2-5-8.7-11-12.1
		c-3.9-2-3.5-8.7-6.9-12.9c-0.4,0.1-0.7,0.1-1.1,0.1c-3.2-0.3-5.7-4.2-7.7-6.1c-3.2,2.6-6.9,4.1-10.1,6.7c-1.1,0.9-3.8,4-4.9,4.4
		c-2.5,1-5.1-0.3-5.6-0.1c-4.6,1.5-6.2,6.5-9.5,10.6c-3.8,4.8-8.1,9.2-12.8,13c-7.8,6.3-15.9,9.5-24,15.2
		c-6.4,4.5-12.7,9.5-18.8,14.4c-4.7,3.7-13.5,8.8-16,13.9c-0.6,1-1.3,1.9-2,2.8c3.7,4.8,20.1,3.6,26.6,3.8
		c10.3,0.4,19.8,2.2,29.7,3.3c11.3,1.3,23.9,0,34.6,3.1c6.7,1.9,22.6,1.3,27.3,4.8l86.5-2.9c-13.5-5.8-25.2-14.9-36.1-22.2
		C432.1,217.8,422.1,215.2,410.1,210.8z"/>
	
		<linearGradient id="SVGID_15_" gradientUnits="userSpaceOnUse" x1="82.2599" y1="1096.0199" x2="374.4499" y2="819.7899" gradientTransform="matrix(1 0 0 1 0 -664)">
		<stop  offset="0" style="stop-color:#A3BDBD"/>
		<stop  offset="0.37" style="stop-color:#99B8B8"/>
		<stop  offset="0.99" style="stop-color:#7EABAB"/>
	</linearGradient>
	<path class="st16" d="M558.9,286.7c-33.3-13.8-69-34.5-104.8-42.3c-10.4-2.3-22.3-3-32.2-6.5c-7.8-2.7-14.4-6.9-22-9.8
		c-26.6-10.2-58.4-15.6-83.1-30.3c-12-7.2-18.1-17.5-26.2-26.7c-3-3.4-11.5-10.3-15.7-10.4c-10.4-0.2-10.2,8.2-22,1.4
		c-12.1-7-22.9-16.1-31.8-26.9c-4.4-5.4-7.7-9.2-15.3-11.1c-3.2-0.8-5.9,0.5-9.7-1.1c-3.6-1.5-5.4-4.6-8.5-6.5c-5-3-13.3-7.3-19-8.7
		c-6.5-1.5-15.3-0.4-22.7-1.1c-17.2-1.5-22.6,2.2-37.2,9.3c-6.4,3.1-14.2,5.2-19.8,9.1c-6,4.2-9,11.5-15.2,16.1
		c-5.3,3.9-13,6.2-18.8,10c-5.7,3.8-11,8.2-15.8,13c-5.3,5.1-8.3,8.4-16.2,9.3c-4.2,0.5-8.1-0.3-11.9,0.9s-5.1,3.8-8.3,5
		c-0.9,0.4-1.8,0.6-2.7,0.7v138c13.3,2.3,26.8,4.1,39.8,6.4c25.8,4.5,52.7,2.8,78.8,4.5c25.6,1.7,50.6,2.4,76.3,2.4
		c51.4,0,102.6-3.6,153.9-6.7c25.7-1.6,50.9-7,76.8-7.2c21.6-0.2,43.1-1.2,64.6-2.6c22-1.4,58.6-0.7,77.5-12.8
		C580,294.2,570.2,291.4,558.9,286.7z"/>
	
		<linearGradient id="SVGID_16_" gradientUnits="userSpaceOnUse" x1="-28.4786" y1="918.1215" x2="119.1114" y2="778.5915" gradientTransform="matrix(1 0 0 1 0 -664)">
		<stop  offset="0" style="stop-color:#A3BDBD"/>
		<stop  offset="0.29" style="stop-color:#99B7B9"/>
		<stop  offset="0.78" style="stop-color:#7DA8B0"/>
		<stop  offset="0.99" style="stop-color:#6FA0AB"/>
	</linearGradient>
	<path class="st17" d="M145.9,106.8c-17.2-1.5-22.6,2.2-37.2,9.3c-6.4,3.1-14.2,5.2-19.8,9.1c-6,4.2-9,11.5-15.2,16.1
		c-5.3,3.9-13,6.2-18.8,10c-5.7,3.8-11,8.2-15.8,13c-5.3,5.1-8.3,8.4-16.2,9.3c-4.2,0.5-8.1-0.3-11.9,0.9s-5.1,3.8-8.3,5
		c-0.9,0.3-1.8,0.5-2.7,0.6v90.5c16.7-11.1,30.9-24,42.9-40.7c5-6.1,13-7.8,18-13.9c5-6.9,2-17.3,10-21.7s18-2.6,23-9.5
		c5-6.1,2-13,5-19.1c2-3.5,6-3.5,8-6.9c6-6.1-4-13.9,3-19.1s15-2.6,23-7.8c9-5.2,13-11.3,12-21.7C145,109,145.3,107.8,145.9,106.8z"
		/>
	
		<linearGradient id="SVGID_17_" gradientUnits="userSpaceOnUse" x1="68.2592" y1="1072.6292" x2="267.3792" y2="884.3892" gradientTransform="matrix(1 0 0 1 0 -664)">
		<stop  offset="0" style="stop-color:#A3BDBD"/>
		<stop  offset="0.29" style="stop-color:#99B9B9"/>
		<stop  offset="0.78" style="stop-color:#7DADB0"/>
		<stop  offset="0.99" style="stop-color:#6FA7AB"/>
	</linearGradient>
	<path class="st18" d="M304.9,288.9c-38-23.4-86-26-119-54.6c-18-14.7,6-33.8-2-48.6c-6-9.5-8-19.1-6-30.3c1-2.6-8-6.1-9-9.5
		c-2-11.3,2-22.5-7-31.2c0-0.9-3-2.6-5-2.6c-0.2-1.8-0.9-3.6-2-5c-3,0-6.1,0-8.9-0.2c-0.7,1.1-1,2.3-1.1,3.5c1,10.4-3,16.5-12,21.7
		c-8,5.2-16,2.6-23,7.8s3,13-3,19.1c-2,3.5-6,3.5-8,6.9c-3,6.1,0,13-5,19.1c-5,6.9-15,5.2-23,9.5s-5,14.7-10,21.7
		c-5,6.1-13,7.8-18,13.9c-12,16.7-26.2,29.6-42.9,40.7v47.4c13.3,2.3,26.8,4.1,39.8,6.4c25.8,4.5,52.7,2.8,78.8,4.5
		c25.6,1.7,50.6,2.4,76.3,2.4c51.4,0,102.6-3.6,153.9-6.7c19.3-1.2,38.3-4.5,57.4-6.2c-3.1-1.1-6.2-2-9.4-2.7
		C363.9,310.5,332.9,306.2,304.9,288.9z"/>
	
		<linearGradient id="SVGID_18_" gradientUnits="userSpaceOnUse" x1="292.6808" y1="936.2208" x2="414.8108" y2="820.7608" gradientTransform="matrix(1 0 0 1 0 -664)">
		<stop  offset="1.000000e-02" style="stop-color:#6FA7AB"/>
		<stop  offset="0.22" style="stop-color:#7DADB0"/>
		<stop  offset="0.71" style="stop-color:#99B9B9"/>
		<stop  offset="1" style="stop-color:#A3BDBD"/>
	</linearGradient>
	<path class="st19" d="M558.9,286.7c-33.3-13.8-69-34.5-104.8-42.3c-10.4-2.3-22.3-3-32.2-6.5c-7.8-2.7-14.4-6.9-22-9.8
		c-26.6-10.2-58.4-15.6-83.1-30.3c-12-7.2-18.1-17.5-26.2-26.7c-3-3.4-11.5-10.3-15.7-10.4c-10.4-0.2-10.2,8.2-22,1.4
		c-12.1-7-22.9-16.1-31.8-26.9c-4.4-5.4-7.7-9.2-15.3-11.1c-3.2-0.8-5.9,0.5-9.7-1.1c-3.6-1.5-5.4-4.6-8.5-6.5c-5-3-13.3-7.3-19-8.7
		c-2.8-0.6-5.6-0.9-8.5-0.8c16.1,12.6,24.2,31,39.8,42.2c17,11.3,17,25.1,25,39c3,6.1,18,3.5,23,7.8c8,8.7,2,26.9,15,31.2
		c19.7,5.1,39.8,8.9,60,11.3c9,0.9,11,13.9,17,13.9c29,0.9,53,13.9,79,23.4c22,7.8,45,10.4,70,13.9c5,0.9,9,4.3,14,6.1
		c20.7,5.1,41.9,6.9,63.3,7.2l1.5-0.9C580,294.2,570.2,291.4,558.9,286.7z"/>
	
		<radialGradient id="SVGID_19_" cx="152.1084" cy="1129.3966" r="96.74" gradientTransform="matrix(1.27 -0.13 9.000000e-02 0.66 -181.16 -525.86)" gradientUnits="userSpaceOnUse">
		<stop  offset="0" style="stop-color:#FFFFFF"/>
		<stop  offset="1" style="stop-color:#FFFFFF;stop-opacity:0"/>
	</radialGradient>
	<path class="st20" d="M237.3,186c4.9,35.4-46.2,69.8-114.2,76.9C55.1,270-4,247.1-8.9,211.7s46.2-69.8,114.2-76.9
		S232.4,150.6,237.3,186z"/>
	
		<radialGradient id="SVGID_20_" cx="580.0368" cy="755.598" r="96.7419" gradientTransform="matrix(1.14 0.51 -0.23 0.39 -175.42 -336.33)" gradientUnits="userSpaceOnUse">
		<stop  offset="0" style="stop-color:#FFFFFF"/>
		<stop  offset="1" style="stop-color:#FFFFFF;stop-opacity:0"/>
	</radialGradient>
	<path class="st21" d="M422,303.8c-12.4,20.8-71.8,15.6-132.6-11.7s-100-66.3-87.6-87.1s71.8-15.6,132.6,11.6
		C395.2,244,434.4,283,422,303.8z"/>
	
		<linearGradient id="SVGID_21_" gradientUnits="userSpaceOnUse" x1="659.446" y1="947.9042" x2="659.446" y2="804.243" gradientTransform="matrix(1 0 0 1 0 -664)">
		<stop  offset="0" style="stop-color:#83C1C4"/>
		<stop  offset="1" style="stop-color:#97AFAF"/>
	</linearGradient>
	<path class="st22" d="M774,150.7c-4.8-1.2-8,1.9-13.1,0.3c-3.5-1.1-7-6-10-7.8c-4.9-2.9-4.1-4.1-11-1.6c-3.5,1.3-8.1,3.6-8.1,7.5
		c-7.7-1-13.3,11.4-17.8,15.8c-4.2,4-12.2,11.9-11.2,18.1c-6.7,0.6-13.9,2.4-20.6,3.4c-7.7,1.1-10.4,2.4-14.4,9.6
		c-7.8-0.4-13,5-19.8,7.1c-6.5,2-14,2.2-20.8,3.3c-4,0.6-3.6-1.5-8.2,1.2c-2.4,1.4-4.4,6.1-6.2,8.3c-4.1,5.1-9.3,11.5-14.8,15.8
		c-12,9.5-25.9,11.7-41,15.6c-23.4,6-8.9,13.6,8,15.6c15.3,1.8,30.6,2.4,46,1.7c13.3-0.6,34.3-4.2,46.8,0.2c2.6,7.3-7,8.1-10.9,12.9
		c5.6,6.2,33.2,4,42.1,4.3c15.2,0.6,29.7,2.8,45,1.5c13.5-1.1,26.4-2.9,40.1-3.2L774,150.7L774,150.7z"/>
	
		<linearGradient id="SVGID_22_" gradientUnits="userSpaceOnUse" x1="648.5278" y1="922.5185" x2="648.5278" y2="804.243" gradientTransform="matrix(1 0 0 1 0 -664)">
		<stop  offset="0" style="stop-color:#7BB9BA"/>
		<stop  offset="1" style="stop-color:#6FA9AF"/>
	</linearGradient>
	<path class="st23" d="M630.9,250.7c12-2.6,24-6.1,35-13c3-1.7,9,1.7,10-1.7c4-8.7,13-14.7,23-10.4c3-12.1,16-18.2,13-31.2
		c0,0,2-3.5,3-3.5c8,2.6,12-2.6,16-6.1c1-1.7-1-6.1,0-6.1c13-6.9,22-13.9,14-26c1-0.9,2-0.9,4-0.9c0-3,1-6.1,3.3-7.7
		c-0.4-0.4-0.8-0.7-1.3-0.9c-4.9-2.9-4.1-4.1-11-1.6c-3.5,1.3-8.1,3.6-8.1,7.5c-7.7-1-13.3,11.4-17.8,15.8
		c-4.2,4-12.2,11.9-11.2,18.1c-6.7,0.6-13.9,2.4-20.6,3.4c-7.7,1.1-10.4,2.4-14.4,9.6c-7.8-0.4-13,5-19.8,7.1
		c-6.5,2-14,2.2-20.8,3.3c-4,0.6-3.6-1.5-8.2,1.2c-2.4,1.4-4.4,6.1-6.2,8.3c-4.1,5.1-9.3,11.5-14.8,15.8c-12,9.5-25.9,11.7-41,15.6
		c-11.3,2.9-13.7,6.2-11.3,9.1C572.3,261.9,602.5,255.5,630.9,250.7z"/>
	<path class="st24" d="M774,367.6c-1.9-1.2-4.5-1.2-7.3-0.3c-1.7,0.6-3.4,1.1-5.1,1.4c-1.5,0.3-4.6,1-5.4,2.3c-2.1-1.4-7,1-8.7,2.6
		c-2-1.4-4.5,0.8-6.2,0.6c-2.7-0.2-4.6-1.9-7.3-1.5c-2.9,0.5-3.8,2.2-6.3,3.2c-2.1,0.9-5.3,1.1-7.7,1.2c-1.3,0.1-2.4,0.6-4,0.2
		c-1.2-0.3-2.1-1.3-3.4-1.4s-1.7,1-2.9,1.1c-1.8,0.2-3.1-0.4-4.7-0.9c-1.4-0.4-1.8-1-3.6-0.9c-1.5,0.1-2.7,1.4-4.1,1.4
		c-0.9,0-2.9-0.9-4-1.1c-1.6-0.2-2.7-0.3-4.3-0.6c-3.1-0.6-6.2-0.8-9.3-0.6c-1.5,0.1-4,0.5-5.4,0.1c-1.6-0.4-2.2-1.4-3.7-1.7
		c-2.5-0.6-5.6,0.6-8-0.3c-2-0.9-3.9-2-5.6-3.3c-1.9-1.5-1.3-3.7-3.1-5.1c-2.3-1.8-5-0.6-6.9-2.7c-1.7-1.9-0.4-3.2-2-4.9
		c-0.3-0.3-2.3-1.3-3-2c-0.8-0.7-1.6-1.5-2.2-2.4c-1.5-2.1-1-3.9-3.7-4.9c-2-0.7-3.9-0.4-5.8-1.7s-8.6-6.4-10.7-4.2
		c-2.4-1.2-5.1-0.8-7.7-1.3c-2.8-0.6-4.4-1.3-7.5-1.2c-0.1,0.4-0.3,0.8-0.4,1.1c-2.5-0.3-4-3.1-7-3.4c-2.6-0.3-5-0.4-7.4-0.6
		c-4.6-0.3-9.3,3.3-14.6,2.6c-3.9-0.5-3.4-0.5-5.7,2c-1.7,1.8-3.6,3.4-5.7,4.6c-2.7,1.6-6.8,2.5-10.7,3.2
		c-9.2-0.1-16.7-2.6-25.2-5.3c-9.6-3.1-19.6-5.9-29.5-9c-4.3-2.6-8.6-5.6-12.7-8.1c-6.8-4-14.1-8.4-21.4-12.7s-12.6-10.6-19.5-15.3
		c-4.5-3.1-5.7-3.9-11.2-5.3c-4.4-1-8.5-2.9-12-5.7c-2.9-2.2-7.3-6.2-9.3-9.4c-3.2-5.3-2.6-6.8-11.2-6.5c-1.1-4.4-6-2.6-9.5-3.9
		c-3.1-1.2-5.6-3.8-8.7-5.4c-6.1-3.1-11.8-8.6-18.7-10.1c-0.8-0.2-2.1,0.9-3.5,0.6c-0.7-0.1-2.3-1.9-3.2-2.3c-2.4-1.1-3.7-2.8-6.6-3
		c-1.8-0.1-5.9,0.9-7.3,1c-2.3,0.2-3.2-0.5-6,0.3c-3.1,0.9-4,3.6-6.7,4.4c-0.9,0.3-6.1-0.1-7.4,0.1c-6.4,1-8.8,2.3-15.4,0.6
		c-4.8-1.2-9.7-1.7-14-4.2c-3.8-2.2-6.9-5.5-10.5-8c-6.8-4.7-12.2-12.5-15.5-19.7c-2-4.4-0.9-8.6-2-13.3s-5.3-7.5-6.7-12.1
		s1.2-8.6-5.3-11.1c-6.3-2.4-9.1,1.3-13.4-4.5c-3.1-4.2-4.2-7.3-10.7-9.1c-5.8-1.7-9.5-1.7-14.7-4.2c-3.8-1.8-6.7-4.3-10.6-6.3
		c-4.4-2.2-9.4-1.5-13.8-1.9c-8.4-0.8-23.3,1.3-30.8,4.8c-4.4,2-8.4,4.5-11.2,8.1c-4,5.1-6.1,5.5-11.5,9.2
		c-4.7,3.3-4.9,6.1-7.5,10.3c-1.6,2.5-3.3,3.2-5.8,4.9c-1.7,1.2-4.4,3.6-6,4.5c-8.7,4.7-20.9-1-29.2-4.2c-4-1.6-7.8-3.7-11.3-6.3
		c-2.2-1.8-1.4-3.9-4.8-5.1c-1-0.4-5.2,0.4-6.8,0.2c-5.3-0.8-9-6.6-13.2-6.5s-3.3,2.8-5.5,4c-2.3,1.4-4.7,1.5-7.1,2.9
		c-3.8,2.2-4.4,7.1-8.1,9.4c-1.6,1-5.4,2-6.7,2.7s-3.5,2.4-5.2,3.6c-4.2,3-8,8.7-12.8,12.7c-2.4,0.5-4.8,0.9-7.2,1.2V422h774V367.6z
		"/>
	<path class="st25" d="M28.9,247.2c3-2.6,13,4.3,17,0.9c4-2.6,8-6.1,14-6.9c-4-18.2,14-12.1,27-17.3c3-0.9,4-6.1,6-6.9
		c11.8-4.4,28.6-9.4,31.2-20.7c-0.1,0-0.1,0.1-0.2,0.1c-1.7,1.2-4.4,3.6-6,4.5c-8.7,4.7-20.9-1-29.2-4.2c-4-1.6-7.8-3.7-11.3-6.3
		c-2.2-1.8-1.4-3.9-4.8-5.1c-1-0.4-5.2,0.4-6.8,0.2c-5.3-0.8-9-6.6-13.2-6.5s-3.3,2.8-5.5,4c-2.3,1.4-4.7,1.5-7.1,2.9
		c-3.8,2.2-4.4,7.1-8.1,9.4c-1.6,1-5.4,2-6.7,2.7s-3.5,2.4-5.2,3.6c-4.2,2.7-8,8.4-12.8,12.4c-2.4,0.5-4.8,0.9-7.2,1.2V263
		C10.7,259.1,20.9,254.6,28.9,247.2z"/>
	<path class="st26" d="M255.9,261.1c-1-2.6-5-3.5-8-5.2c-4-3.5,1-6.9,3-10.4c3-8.7-9-10.4-14-13c-17-9.5-18-33.8-36-45.1
		c7,19.9,4,42.5,9,64.2c1,2.6,6,5.2,7,7.8c3,4.3,3,10.4,6,14.7c5.5,9.5,11.5,18.4,16.7,28c4.1-3.4,8.6-6.4,13.3-9
		c7.6-4.5,14.8-9.7,21.5-15.4C265.8,275,258.6,269.9,255.9,261.1z"/>
	
		<radialGradient id="SVGID_23_" cx="398.2939" cy="969.0697" r="96.7667" gradientTransform="matrix(1.26 0.2 -0.14 0.66 -175.29 -421.75)" gradientUnits="userSpaceOnUse">
		<stop  offset="0" style="stop-color:#FFFFFF"/>
		<stop  offset="1" style="stop-color:#FFFFFF;stop-opacity:0"/>
	</radialGradient>
	<path class="st27" d="M313.3,314.7c-7.2,35.1-67.7,55-135.1,44.6S62,312,69.2,276.9s67.7-55,135.1-44.6S320.5,279.6,313.3,314.7z"
		/>
	<path class="st28" d="M106.9,285.4c5-5.2,8-13.9,13-18.2c11-9.5,17-19.9,24-32.1c1-2.6,4-5.2,5-7.8c2-2.6,1-6.1,3-8.7
		c6-7.8,9-13,8-22.5c0-0.9,2-3.5,3-3.5c9,0.9,13-6.1,19-9.5c5-3.5,1-14.7,6-22.5c0.3-0.6,0.7-1.2,1.2-1.7
		c-8.6-0.4-22.2,1.6-29.2,4.9c-4.4,2-8.4,4.5-11.2,8.1c-4,5.1-6.1,5.5-11.5,9.2c-4.7,3.3-4.9,6.1-7.5,10.3c-1.5,2.4-3.2,3.1-5.7,4.8
		c-2.6,11.3-19.4,16.4-31.2,20.7c-2,0.9-3,6.1-6,6.9c-13,5.2-31-0.9-27,17.3c-6,0.9-10,4.3-14,6.9c-4,3.5-14-3.5-17-0.9
		c-8,7.3-18.2,11.9-28.9,15.7V350C40.1,336.3,76.9,315.5,106.9,285.4z"/>
	<path class="st28" d="M283.9,351.3c3-5.2,1-12.1,4-17.3c5-10.4,12-19.1,18-29.5c2-2.6,3-6.1,6-8.7c3-4.3-1-9.5,0-13.9
		c1-0.9,1-3.5,3-3.5c12,0,22-6.1,22-17.3c3,0,7,0.9,8-0.9c3.4-3,5.4-8.4,8.1-12.7c-0.8-0.4-1.6-0.6-2.5-0.7c-1.8-0.1-5.9,0.9-7.3,1
		c-2.3,0.2-3.2-0.5-6,0.3c-3.1,0.9-4,3.6-6.7,4.4c-1.7,0.2-3.4,0.2-5.1,0c-4.3,1.9-8.9,2.9-13.6,3.2c-4,0.9-5,5.2-8,6.1
		c-3,1.7-10,0.9-11,1.7c-14,9.5-25,20.8-40,29.5c-16,8.7-26,21.7-40,32.1c-6,4.3-14,5.2-19,8.7C133.1,370.1,70,403.7,0,401.6V422
		h218.9c9.3-6.1,18.2-12.7,27-19.6C262.9,388.6,273.9,369.5,283.9,351.3z"/>
	<path class="st24" d="M774,367.6c-1.9-1.2-4.5-1.2-7.3-0.3c-1.7,0.6-3.4,1.1-5.1,1.4c-1.5,0.3-4.6,1-5.4,2.3c-2.1-1.4-7,1-8.7,2.6
		c-2-1.4-4.5,0.8-6.2,0.6c-2.7-0.2-4.6-1.9-7.3-1.5c-2.9,0.5-3.8,2.2-6.3,3.2c-2.1,0.9-5.3,1.1-7.7,1.2c-1.3,0.1-2.4,0.6-4,0.2
		c-1.2-0.3-2.1-1.3-3.4-1.4s-1.7,1-2.9,1.1c-1.8,0.2-3.1-0.4-4.7-0.9c-1.4-0.4-1.8-1-3.6-0.9c-1.5,0.1-2.7,1.4-4.1,1.4
		c-0.9,0-2.9-0.9-4-1.1c-1.6-0.2-2.7-0.3-4.3-0.6c-3.1-0.6-6.2-0.8-9.3-0.6c-1.5,0.1-4,0.5-5.4,0.1c-1.6-0.4-2.2-1.4-3.7-1.7
		c-2.5-0.6-5.6,0.6-8-0.3c-2-0.9-3.9-2-5.6-3.3c-1.9-1.5-1.3-3.7-3.1-5.1c-2.3-1.8-5-0.6-6.9-2.7c-1.7-1.9-0.4-3.2-2-4.9
		c-0.3-0.3-2.3-1.3-3-2c-0.8-0.7-1.6-1.5-2.2-2.4c-1.5-2.1-1-3.9-3.7-4.9c-2-0.7-3.9-0.4-5.8-1.7s-8.6-6.4-10.7-4.2
		c-2.4-1.2-5.1-0.8-7.7-1.3c-2.8-0.6-4.4-1.3-7.5-1.2c-0.1,0.4-0.3,0.8-0.4,1.1c-2.5-0.3-4-3.1-7-3.4c-2.6-0.3-5-0.4-7.4-0.6
		c-4.6-0.3-9.3,3.3-14.6,2.6c-3.9-0.5-3.4-0.5-5.7,2c-1.7,1.8-3.6,3.4-5.7,4.6c-2.7,1.6-6.8,2.5-10.7,3.2
		c-9.2-0.1-16.7-2.6-25.2-5.3c-9.6-3.1-19.6-5.9-29.5-9c-4.3-2.6-8.6-5.6-12.7-8.1c-6.8-4-14.1-8.4-21.4-12.7s-12.6-10.6-19.5-15.3
		c-4.5-3.1-5.7-3.9-11.2-5.3c-4.4-1-8.5-2.9-12-5.7c-2.9-2.2-7.3-6.2-9.3-9.4c-3.2-5.3-2.6-6.8-11.2-6.5c-1.1-4.4-6-2.6-9.5-3.9
		c-3.1-1.2-5.6-3.8-8.7-5.4c-6.1-3.1-11.8-8.6-18.7-10.1c-0.8-0.2-2.1,0.9-3.5,0.6c-0.7-0.1-2.3-1.9-3.2-2.3
		c-1.6-0.7-2.7-1.7-4.2-2.4c-2.8,4.3-4.7,9.7-8.1,12.7c-1,1.7-5,0.9-8,0.9c0,11.3-10,17.3-22,17.3c-2,0-2,2.6-3,3.5
		c-1,4.3,3,9.5,0,13.9c-3,2.6-4,6.1-6,8.7c-6,10.4-13,19.1-18,29.5c-3,5.2-1,12.1-4,17.3c-10,18.2-21,37.3-38,51.2
		c-8.7,6.9-17.7,13.5-27,19.6h555V367.6z"/>
	
		<radialGradient id="SVGID_24_" cx="528.8802" cy="1005.5397" r="96.6645" gradientTransform="matrix(1.26 0.2 -0.14 0.66 -175.29 -421.75)" gradientUnits="userSpaceOnUse">
		<stop  offset="0" style="stop-color:#FFFFFF"/>
		<stop  offset="1" style="stop-color:#FFFFFF;stop-opacity:0"/>
	</radialGradient>
	<path class="st29" d="M472.9,364.1c-7.2,35.1-67.7,55-135.1,44.6s-116.2-47.3-109-82.4s67.7-55,135.1-44.6S480.1,329.1,472.9,364.1
		z"/>
	<path class="st30" d="M579.9,272.4c0,0.2-4,0.3-9,0.3s-9-0.1-9-0.3s4-0.3,9-0.3S579.9,272.2,579.9,272.4z"/>
	<path class="st30" d="M608.6,278.2c-0.9,0.1-1.8,0.2-2.7,0.2c-1.7,0.1-4,0.1-6.6,0.1s-4.9,0-6.6-0.1c-0.9,0-1.8-0.1-2.7-0.2
		c0.9-0.2,1.8-0.3,2.7-0.2c1.7-0.1,4-0.1,6.6-0.1s4.9,0,6.6,0.1C606.8,277.9,607.7,278,608.6,278.2z"/>
	<path class="st30" d="M623.2,270.7c0,0.2-3,0.3-6.7,0.3s-6.7-0.1-6.7-0.3s3-0.3,6.7-0.3S623.2,270.5,623.2,270.7z"/>
	<path class="st30" d="M619.9,291.5c-1.3,0.2-2.7,0.3-4,0.2c-2.5,0.1-5.9,0.1-9.7,0.1s-7.2,0-9.7-0.1c-1.3,0-2.7-0.1-4-0.2
		c1.3-0.1,2.7-0.2,4-0.2c2.5-0.1,5.9-0.1,9.7-0.1s7.2,0,9.7,0.1C617.2,291.2,618.6,291.3,619.9,291.5z"/>
	<path class="st30" d="M659.2,292c-0.9,0.2-1.9,0.3-2.8,0.2c-1.8,0.1-4.2,0.1-6.8,0.1s-5.1,0-6.8-0.1c-0.9,0-1.9-0.1-2.8-0.2
		c0.9-0.1,1.9-0.2,2.8-0.2c1.8-0.1,4.2-0.1,6.8-0.1s5.1,0,6.8,0.1S659.2,292,659.2,292z"/>
	<path class="st30" d="M703.2,293.2c-1.3,0.1-2.5,0.2-3.8,0.2c-2.4,0.1-5.6,0.1-9.2,0.1s-6.8,0-9.2-0.1c-1.3,0-2.5-0.1-3.8-0.2
		c1.3-0.2,2.5-0.3,3.8-0.2c2.4-0.1,5.6-0.1,9.2-0.1s6.8,0,9.2,0.1C700.7,292.9,701.9,293,703.2,293.2z"/>
	<path class="st30" d="M644.6,303c-1.4,0.2-2.7,0.3-4.1,0.2c-2.5,0.1-6,0.1-9.9,0.1s-7.4,0-9.9-0.1c-1.4,0-2.7-0.1-4.1-0.2
		c1.4-0.1,2.7-0.2,4.1-0.2c2.5-0.1,6-0.1,9.9-0.1s7.4,0,9.9,0.1C641.9,302.8,643.2,302.9,644.6,303z"/>
	<path class="st30" d="M669.9,300.1c0,0.2-1.6,0.3-3.7,0.3s-3.7-0.1-3.7-0.3s1.6-0.3,3.7-0.3C667.4,299.8,668.7,299.9,669.9,300.1z"
		/>
	<path class="st30" d="M633.9,296.7c0,0.2-2.7,0.3-6,0.3s-6-0.1-6-0.3s2.7-0.3,6-0.3S633.9,296.5,633.9,296.7z"/>
	<path class="st30" d="M594.6,316.9c-0.4,0.1-0.9,0.1-1.3,0.1c-0.8,0-2.1,0.1-3.6,0.1c-3,0.1-7.2,0.1-11.8,0.1s-8.8,0-11.8-0.1
		c-1.5,0-2.7-0.1-3.6-0.1c-0.4,0-0.9,0-1.3-0.1c0.4-0.1,0.9-0.1,1.3-0.1c0.8,0,2.1-0.1,3.6-0.1c3-0.1,7.2-0.1,11.8-0.1
		s8.8,0,11.8,0.1c1.5,0,2.7,0.1,3.6,0.1C593.7,316.8,594.2,316.8,594.6,316.9z"/>
	<path class="st30" d="M609.2,308.8c-1.2,0.1-2.5,0.2-3.7,0.2c-2.3,0.1-5.5,0.1-9,0.1s-6.7,0-9-0.1c-1.2,0-2.5-0.1-3.7-0.2
		c1.2-0.2,2.5-0.3,3.7-0.2c2.3-0.1,5.5-0.1,9-0.1s6.7,0,9,0.1C606.7,308.6,608,308.7,609.2,308.8z"/>
	<ellipse class="st30" cx="507.2" cy="252.7" rx="6" ry="0.3"/>
	<path class="st30" d="M533.2,251c0,0.2-2.5,0.3-5.7,0.3s-5.7-0.1-5.7-0.3s2.5-0.3,5.7-0.3S533.2,250.8,533.2,251z"/>
	<path class="st30" d="M521.2,257.9c0,0.2-2.7,0.3-6,0.3s-6-0.1-6-0.3s2.7-0.3,6-0.3S521.2,257.8,521.2,257.9z"/>
	<ellipse class="st30" cx="535.2" cy="257.4" rx="4" ry="0.3"/>
	<path class="st30" d="M551.9,261.4c0,0.2-2.5,0.3-5.7,0.3s-5.7-0.1-5.7-0.3s2.5-0.3,5.7-0.3S551.9,261.2,551.9,261.4z"/>
	<path class="st30" d="M531.2,263.1c0,0.2-1.5,0.3-3.3,0.3s-3.3-0.1-3.3-0.3s1.5-0.3,3.3-0.3C529,262.8,530.1,262.9,531.2,263.1z"/>
	<path class="st30" d="M574.6,268.3c0,0.2-2.2,0.3-5,0.3s-5-0.1-5-0.3s2.2-0.3,5-0.3C571.3,268,572.9,268.1,574.6,268.3z"/>
	<path class="st30" d="M593.9,270.1c0,0.2-1.5,0.3-3.3,0.3s-3.3-0.1-3.3-0.3s1.5-0.3,3.3-0.3S593.9,269.9,593.9,270.1z"/>
	<path class="st30" d="M629.9,278.2c0,0.2-1.9,0.3-4.3,0.3s-4.3-0.1-4.3-0.3s1.9-0.3,4.3-0.3S629.9,278,629.9,278.2z"/>
	<path class="st30" d="M631.2,283.9c0,0.2-1,0.3-2.3,0.3s-2.3-0.1-2.3-0.3s1-0.3,2.3-0.3C629.7,283.6,630.4,283.7,631.2,283.9z"/>
	<path class="st30" d="M576.6,283.4c0,0.2-4,0.3-9,0.3s-9-0.1-9-0.3s4-0.3,9-0.3S576.6,283.2,576.6,283.4z"/>
	<path class="st30" d="M559.2,324.4c0,0.2-2.7,0.3-6,0.3s-6-0.1-6-0.3s2.7-0.3,6-0.3C555.2,324,557.2,324.1,559.2,324.4z"/>
	<path class="st30" d="M512.6,320.9c0,0.2-3.1,0.3-7,0.3s-7-0.1-7-0.3s3.1-0.3,7-0.3S512.6,320.8,512.6,320.9z"/>
	<path class="st30" d="M542.6,318.6c0,0.2-3.9,0.3-8.7,0.3s-8.7-0.1-8.7-0.3s3.9-0.3,8.7-0.3C536.8,318.2,539.7,318.3,542.6,318.6z"
		/>
	<path class="st30" d="M521.2,326.7c0,0.2-1.3,0.3-3,0.3s-3-0.1-3-0.3s1.3-0.3,3-0.3C519.2,326.3,520.2,326.4,521.2,326.7z"/>
	<path class="st30" d="M591.2,325.6c0,0.2-1.6,0.3-3.7,0.3s-3.7-0.1-3.7-0.3s1.6-0.3,3.7-0.3S591.2,325.4,591.2,325.6z"/>
	<path class="st30" d="M581.2,322.7c0,0.2-3.7,0.3-8.3,0.3s-8.3-0.1-8.3-0.3s3.7-0.3,8.3-0.3S581.2,322.5,581.2,322.7z"/>
	<path class="st30" d="M649.2,318.6c-0.5,0.1-1.1,0.1-1.6,0.1c-1,0-2.5,0.1-4.3,0.1c-3.6,0.1-8.6,0.1-14.1,0.1s-10.5,0-14.1-0.1
		c-1.8,0-3.3-0.1-4.3-0.1c-0.5,0-1.1,0-1.6-0.1c0.5-0.1,1.1-0.1,1.6-0.1c1,0,2.5-0.1,4.3-0.1c3.6-0.1,8.6-0.1,14.1-0.1
		s10.5,0,14.1,0.1c1.8,0,3.3,0.1,4.3,0.1S649.2,318.6,649.2,318.6z"/>
	<path class="st30" d="M678.6,287.4c0,0.2-3.4,0.3-7.7,0.3s-7.7-0.1-7.7-0.3s3.4-0.3,7.7-0.3C673.5,287,676,287.1,678.6,287.4z"/>
	<path class="st30" d="M653.9,273c0,0.2-3.1,0.3-7,0.3s-7-0.1-7-0.3s3.1-0.3,7-0.3S653.9,272.8,653.9,273z"/>
	<rect x="11.9" y="-98.4" class="st31" width="750" height="500"/>
</g>
</svg>
