<?xml version="1.0" encoding="utf-8"?>
<!-- Generator: Adobe Illustrator 23.0.5, SVG Export Plug-In . SVG Version: 6.00 Build 0)  -->
<svg version="1.1" id="OBJECTS" xmlns="http://www.w3.org/2000/svg" xmlns:xlink="http://www.w3.org/1999/xlink" x="0px" y="0px"
	 viewBox="0 0 761.6 174.4" style="enable-background:new 0 0 761.6 174.4;" xml:space="preserve">
<style type="text/css">
	.st0{clip-path:url(#SVGID_2_);}
	.st1{clip-path:url(#SVGID_4_);}
	.st2{clip-path:url(#SVGID_6_);}
	.st3{clip-path:url(#SVGID_8_);}
	.st4{clip-path:url(#SVGID_10_);fill:#FFFFE9;}
	.st5{clip-path:url(#SVGID_12_);fill:#FFF9DE;}
	.st6{opacity:0.3;clip-path:url(#SVGID_14_);fill:url(#SVGID_15_);enable-background:new    ;}
	.st7{opacity:0.4;clip-path:url(#SVGID_17_);}
	.st8{opacity:0.4;fill:url(#SVGID_18_);enable-background:new    ;}
	.st9{fill:url(#SVGID_19_);}
	.st10{opacity:0.3;clip-path:url(#SVGID_21_);fill:url(#SVGID_22_);enable-background:new    ;}
	.st11{clip-path:url(#SVGID_24_);fill:url(#SVGID_25_);}
	.st12{clip-path:url(#SVGID_27_);fill:url(#SVGID_28_);}
	.st13{clip-path:url(#SVGID_30_);fill:url(#SVGID_31_);}
	.st14{opacity:0.5;clip-path:url(#SVGID_33_);fill:url(#SVGID_34_);enable-background:new    ;}
	.st15{opacity:0.3;clip-path:url(#SVGID_36_);fill:url(#SVGID_37_);enable-background:new    ;}
	.st16{opacity:0.6;clip-path:url(#SVGID_39_);fill:url(#SVGID_40_);enable-background:new    ;}
	.st17{opacity:0.4;clip-path:url(#SVGID_52_);fill:url(#SVGID_53_);enable-background:new    ;}
	.st18{opacity:0.5;clip-path:url(#SVGID_55_);fill:url(#SVGID_56_);enable-background:new    ;}
	.st19{opacity:0.3;clip-path:url(#SVGID_62_);fill:url(#SVGID_63_);enable-background:new    ;}
	.st20{opacity:0.3;clip-path:url(#SVGID_65_);fill:url(#SVGID_66_);enable-background:new    ;}
	.st21{clip-path:url(#SVGID_68_);fill:#FFFFEB;}
	.st22{clip-path:url(#SVGID_70_);fill:#FFFFEB;}
	.st23{clip-path:url(#SVGID_72_);fill:#FFFFEB;}
	.st24{clip-path:url(#SVGID_74_);fill:#FFFFEB;}
	.st25{clip-path:url(#SVGID_76_);fill:#FFFFEB;}
	.st26{clip-path:url(#SVGID_78_);fill:#FFFFEB;}
	.st27{clip-path:url(#SVGID_80_);fill:#FFFFEB;}
	.st28{clip-path:url(#SVGID_82_);fill:#FFFFEB;}
	.st29{clip-path:url(#SVGID_84_);fill:#FFFFEB;}
	.st30{clip-path:url(#SVGID_86_);fill:#FFFFEB;}
	.st31{clip-path:url(#SVGID_88_);fill:#FFFFEB;}
	.st32{clip-path:url(#SVGID_90_);fill:#FFFFEB;}
	.st33{clip-path:url(#SVGID_92_);fill:#FFFFEB;}
	.st34{clip-path:url(#SVGID_94_);fill:#FFFFEB;}
	.st35{clip-path:url(#SVGID_96_);fill:#FFFFEB;}
	.st36{clip-path:url(#SVGID_98_);fill:#FFFFEB;}
	.st37{clip-path:url(#SVGID_100_);fill:#FFFFEB;}
	.st38{clip-path:url(#SVGID_102_);fill:#FFFFEB;}
	.st39{clip-path:url(#SVGID_104_);fill:#FFFFEB;}
	.st40{clip-path:url(#SVGID_106_);fill:#FFFFEB;}
	.st41{clip-path:url(#SVGID_108_);fill:#FFFFEB;}
	.st42{clip-path:url(#SVGID_110_);fill:#FFFFEB;}
	.st43{clip-path:url(#SVGID_112_);fill:#FFFFEB;}
	.st44{clip-path:url(#SVGID_114_);fill:#FFFFEB;}
	.st45{clip-path:url(#SVGID_116_);fill:#FFFFEB;}
	.st46{clip-path:url(#SVGID_118_);fill:#FFFFEB;}
	.st47{clip-path:url(#SVGID_120_);fill:#FFFFEB;}
	.st48{clip-path:url(#SVGID_122_);fill:#FFFFEB;}
	.st49{clip-path:url(#SVGID_124_);fill:#FFFFEB;}
	.st50{clip-path:url(#SVGID_126_);fill:#FFFFEB;}
	.st51{clip-path:url(#SVGID_128_);fill:#FFFFEB;}
	.st52{clip-path:url(#SVGID_130_);fill:none;}
	.st53{clip-path:url(#SVGID_132_);fill:none;}
</style>
<title>Mesa de trabajo 1</title>
<g>
	<defs>
		<rect id="SVGID_1_" x="-0.4" y="-3.4" width="763" height="177.8"/>
	</defs>
	<clipPath id="SVGID_2_">
		<use xlink:href="#SVGID_1_"  style="overflow:visible;"/>
	</clipPath>
	<g class="st0">
		<defs>
			<rect id="SVGID_3_" y="-3.6" width="762.7" height="280.7"/>
		</defs>
		<clipPath id="SVGID_4_">
			<use xlink:href="#SVGID_3_"  style="overflow:visible;"/>
		</clipPath>
		<g class="st1">
			<g>
				<defs>
					<rect id="SVGID_5_" x="-3.4" y="-3.4" width="769.5" height="280.3"/>
				</defs>
				<clipPath id="SVGID_6_">
					<use xlink:href="#SVGID_5_"  style="overflow:visible;"/>
				</clipPath>
				<g class="st2">
					<g>
						<defs>
							<rect id="SVGID_7_" x="-2.3" y="-3.2" width="769.5" height="280.3"/>
						</defs>
						<clipPath id="SVGID_8_">
							<use xlink:href="#SVGID_7_"  style="overflow:visible;"/>
						</clipPath>
						<g class="st3">
							<g>
								<g>
									<defs>
										<rect id="SVGID_9_" x="-2.3" y="-3.2" width="769.5" height="334.4"/>
									</defs>
									<clipPath id="SVGID_10_">
										<use xlink:href="#SVGID_9_"  style="overflow:visible;"/>
									</clipPath>
									<path class="st4" d="M591.3,65.7c0,33.1-26.9,60-60,60s-60-26.9-60-60s26.9-60,60-60S591.3,32.6,591.3,65.7z"/>
								</g>
							</g>
							<g>
								<g>
									<defs>
										<rect id="SVGID_11_" x="-2.3" y="-3.2" width="769.5" height="334.4"/>
									</defs>
									<clipPath id="SVGID_12_">
										<use xlink:href="#SVGID_11_"  style="overflow:visible;"/>
									</clipPath>
									<path class="st5" d="M771.7,271.9c-34-32.8-121.2-56.2-223.4-56.2c-131.8,0-238.7,38.8-238.7,86.8s106.9,86.8,238.7,86.8
										c102.2,0,189.4-23.4,223.4-56.2V271.9z"/>
								</g>
							</g>
							<g>
								<g>
									<defs>
										<rect id="SVGID_13_" x="-2.3" y="-3.2" width="769.5" height="334.4"/>
									</defs>
									<clipPath id="SVGID_14_">
										<use xlink:href="#SVGID_13_"  style="overflow:visible;"/>
									</clipPath>
									
										<linearGradient id="SVGID_15_" gradientUnits="userSpaceOnUse" x1="430.9608" y1="1635.8159" x2="568.905" y2="1635.8159" gradientTransform="matrix(1 0 0 1 0 -1321.1814)">
										<stop  offset="0" style="stop-color:#83C1C4"/>
										<stop  offset="1" style="stop-color:#97AFAF"/>
									</linearGradient>
									<path class="st6" d="M521.9,295.2c-7.7-0.5-16.1,0.3-23.9,0.3c-17.3,0.1-34.6,1.7-51.7,4.9c-6.5,1.2-17.4,3.7-15,10.9
										c2.6,7.8,10.6,9.7,17.4,14.3c8.4,5.6,13.9,11.9,25,11.1c9.7-0.7,20.9-3.7,29.8-6.8c11.2-4,22.2-8.7,32.8-14
										c4.2-2,7.9-4,12.4-5.2c3.5-0.7,6.8-2,9.8-3.8c4.8-3.3,10.6-8.7,10.4-14.4L521.9,295.2z"/>
								</g>
							</g>
							<g>
								<g>
									<defs>
										<rect id="SVGID_16_" x="-2.3" y="-3.2" width="769.5" height="334.4"/>
									</defs>
									<clipPath id="SVGID_17_">
										<use xlink:href="#SVGID_16_"  style="overflow:visible;"/>
									</clipPath>
									<g class="st7">
										
											<linearGradient id="SVGID_18_" gradientUnits="userSpaceOnUse" x1="378.2893" y1="1572.1814" x2="575.8999" y2="1572.1814" gradientTransform="matrix(1 0 0 1 0 -1321.1814)">
											<stop  offset="0" style="stop-color:#83C1C4"/>
											<stop  offset="1" style="stop-color:#97AFAF"/>
										</linearGradient>
										<path class="st8" d="M535.6,240.6c-12.1-1.4-23.4-4.8-35.9-5.2c-15.1-0.4-30.3,0-45.4,0h-30c-12.6,0-24.9-0.4-37.2,2.2
											c-3.4,0.7-6.4,0.8-7.9,3.9c-2.3,4.7,0.2,13.7,2.6,17.6c3.1,5,5.8,5.3,12,6.3c20.6,3.1,42.7,0,63.5,0
											c18.3,0,36.3-1.4,52.7-8.5c5.5-2.4,8.2-4.5,14.6-4.5c5.5,0,7.4-0.2,11.9-2.7s9.4-3.9,14.5-4.2c3-0.2,6-0.4,9.1-0.4
											c5.2,0,10.8-2,15.8-1.8L535.6,240.6z"/>
										
											<linearGradient id="SVGID_19_" gradientUnits="userSpaceOnUse" x1="575.8908" y1="1564.3314" x2="577.1308" y2="1564.3314" gradientTransform="matrix(1 0 0 1 0 -1321.1814)">
											<stop  offset="0" style="stop-color:#83C1C4"/>
											<stop  offset="1" style="stop-color:#97AFAF"/>
										</linearGradient>
										<path class="st9" d="M575.8,243.1l1.2,0.1C576.6,243.1,576.2,243.1,575.8,243.1z"/>
									</g>
								</g>
							</g>
							<g>
								<g>
									<defs>
										<rect id="SVGID_20_" x="-2.3" y="-3.2" width="769.5" height="334.4"/>
									</defs>
									<clipPath id="SVGID_21_">
										<use xlink:href="#SVGID_20_"  style="overflow:visible;"/>
									</clipPath>
									
										<linearGradient id="SVGID_22_" gradientUnits="userSpaceOnUse" x1="543.9707" y1="1618.9929" x2="806.1106" y2="1618.9929" gradientTransform="matrix(1 0 0 1 0 -1321.1814)">
										<stop  offset="0" style="stop-color:#83C1C4"/>
										<stop  offset="1" style="stop-color:#97AFAF"/>
									</linearGradient>
									<path class="st10" d="M770.6,247.3c-18.4-2.1-37.2-3.3-55.4-6.5c-24-4.2-51-1.6-75.4-1.6c-13.3,0-26.3,0.1-39.5,1.2
										c-16,1.3-29.7,5.8-44.7,9.2l-11.5,0.4c-1.2,2,6.3,10,8.4,12.2c4.2,4.4,10.4,6.2,17,7.3c6.1,1.1,13.4,0.9,19.1,2.6
										c4.3,1.3,7.7,4.9,11.5,6.9c3.1,1.7,9.5,3.3,11.5,6c3.2,4.4,1.3,8.3,7.5,11.2c2.7,1.3,6.5,1.7,8.9,3.1
										c2.8,1.6,5.4,4.5,7.7,6.7c7.3,7,14.2,13.6,24.2,17.6c11.4,4.6,20.9,12.6,32.6,17.1s26.7,8.1,39.2,9.9
										c13.1,1.9,26.7,7.5,39.1,6.5V247.3H770.6z"/>
								</g>
							</g>
							<g>
								<g>
									<defs>
										<rect id="SVGID_23_" x="-2.3" y="-3.2" width="769.5" height="334.4"/>
									</defs>
									<clipPath id="SVGID_24_">
										<use xlink:href="#SVGID_23_"  style="overflow:visible;"/>
									</clipPath>
									
										<linearGradient id="SVGID_25_" gradientUnits="userSpaceOnUse" x1="384.7" y1="1571.3915" x2="384.7" y2="1405.1815" gradientTransform="matrix(1 0 0 1 0 -1321.1814)">
										<stop  offset="0.24" style="stop-color:#BCD4D4"/>
										<stop  offset="0.93" style="stop-color:#A7CACA"/>
										<stop  offset="1" style="stop-color:#A4C9C9"/>
									</linearGradient>
									<path class="st11" d="M771.7,154.3l-0.4-1.1c-6.6-1.2-12.6-4.9-19.4-6.2s-14.5-2.6-21.1-3.8c-14.4-2.6-26-7.2-38.7-14.1
										c-11.3-6.1-25.4-11.5-36.2-19C645.7,103,635,94,623.8,88.4c-5.5-2.7-14.3-5.8-20.6-4.1c-3.6,1-4,3.6-6.9,4.6
										c-5.9,2-5.1,0.1-8.6,0c-8.8-0.2-10,0.7-16.3,6.7c-5.2,4.9-8.8,6.7-15.8,9.3c-7.3,2.7-11.1,6.7-17.7,10.2
										c-5.6,2.9-14.6,5-20.9,7.5c-13.3,5.4-27.6,7.8-41.2,12.8c-9.3,3.4-13.7,5.7-24.2,3.7c-9.2-1.7-12.5-5.5-21.4-3.5
										c-8.7,1.9-9.2,4.5-18.6-0.6c-5.5-3-11.3-6.5-16.3-9.7c-11.2-7.3-31.3-20.7-45.6-21.9c-16.6-1.4-17.5,10-32.5,14.2
										c-11,3.1-26.5,1.1-36.6,7.7c-4.6,3.1-9.4,6-14.4,8.6c-6.4,3.3-7.8,7.3-13.1,11.5c-15.1,12.2-67.6-19.3-73.7-1.1
										c-15.8,0.7-30.4-2.7-45.7-6s-27.2-10.8-40.5-16.1c-6.5-2.6-13.1-4.4-19.8-7.5c-5.4-2.5-15.7-6.6-21.4-3.8
										c-3.2,1.6-9.9,10.7-12.3,13c-5.6,5.7-8.1,7.3-16.2,10c-7.3,2.4-14.8,6.5-22.2,7.9l-3.6,0.6v102.8c9.7,3.5,22.6,4,32.1,4.4
										c23.7,1.1,47.4,0.7,71.1-1.1c50.5-4,100.4-5.1,151.1-5.1c69.2,0,138.2-2.9,207.3-4.4c63.2-1.4,126.5,1.1,189.7,0.9
										c42.3-0.1,81.6,0.4,122.6-4.7v-80.9L771.7,154.3L771.7,154.3z"/>
								</g>
							</g>
							<g>
								<g>
									<defs>
										<rect id="SVGID_26_" x="-2.3" y="-3.2" width="769.5" height="334.4"/>
									</defs>
									<clipPath id="SVGID_27_">
										<use xlink:href="#SVGID_26_"  style="overflow:visible;"/>
									</clipPath>
									
										<linearGradient id="SVGID_28_" gradientUnits="userSpaceOnUse" x1="173.0499" y1="1571.2915" x2="173.0499" y2="1424.34" gradientTransform="matrix(1 0 0 1 0 -1321.1814)">
										<stop  offset="0.24" style="stop-color:#BCD4D4"/>
										<stop  offset="0.58" style="stop-color:#A7CBCB"/>
										<stop  offset="1" style="stop-color:#86BDBD"/>
									</linearGradient>
									<path class="st12" d="M284.6,172.9c2-2.6,9-2.6,11-6.9c4-12.1,10-25.1,28-21.7c1,0,3-1.7,3-2.6c-3-12.1,7-15.6,16-22.5
										c2-1.7,0-6.9,1-10.4c0.6-2.6,2.4-4.7,4.9-5.6c-15.6-0.8-16.8,10.2-31.4,14.3c-11,3.1-26.5,1.1-36.6,7.7
										c-4.6,3.1-9.4,6-14.4,8.6c-6.4,3.3-7.8,7.3-13.1,11.5c-15.1,12.2-67.6-19.3-73.7-1.1c-15.8,0.7-30.4-2.7-45.7-6
										s-27.2-10.8-40.5-16.1c-6.5-2.6-13.1-4.4-19.8-7.5c-5.4-2.5-15.7-6.6-21.4-3.8c-3.2,1.6-9.9,10.7-12.3,13
										c-5.6,5.7-8.1,7.3-16.2,10c-7.3,2.4-14.8,6.5-22.2,7.9l-3.6,0.6v102.8c9.7,3.5,22.6,4,32.1,4.4c23.7,1.1,47.4,0.7,71.1-1.1
										c29.5-2.3,58.7-3.7,88.1-4.4C228.9,231.6,264,206.9,284.6,172.9z"/>
								</g>
							</g>
							<g>
								<g>
									<defs>
										<rect id="SVGID_29_" x="-2.3" y="-3.2" width="769.5" height="334.4"/>
									</defs>
									<clipPath id="SVGID_30_">
										<use xlink:href="#SVGID_29_"  style="overflow:visible;"/>
									</clipPath>
									
										<linearGradient id="SVGID_31_" gradientUnits="userSpaceOnUse" x1="399.6613" y1="1565.1814" x2="399.6613" y2="1405.0029" gradientTransform="matrix(1 0 0 1 0 -1321.1814)">
										<stop  offset="0.24" style="stop-color:#BCD4D4"/>
										<stop  offset="0.58" style="stop-color:#A7CBCB"/>
										<stop  offset="1" style="stop-color:#86BDBD"/>
									</linearGradient>
									<path class="st13" d="M608.9,83.9c-1.9-0.2-3.8,0-5.6,0.4c-3.6,1-4,3.6-6.9,4.6c-5.9,2-5.1,0.1-8.6,0
										c-8.8-0.2-10,0.7-16.3,6.7c-5.2,4.9-8.8,6.7-15.8,9.3c-7.3,2.7-11.1,6.7-17.7,10.2c-5.6,2.9-14.6,5-20.9,7.5
										c-13.3,5.4-27.6,7.8-41.2,12.8c-9.3,3.4-13.7,5.7-24.2,3.7c-9.2-1.7-12.5-5.5-21.4-3.5c-8.7,1.9-9.2,4.5-18.6-0.6
										c-5.5-3-11.3-6.5-16.3-9.7c-11.2-7.3-31.3-20.7-45.6-21.9c-0.4,0-0.7,0-1.1-0.1c-2.5,0.9-4.3,3-4.9,5.6
										c-1,3.5,1,8.7-1,10.4c-9,6.9-19,10.4-16,22.5c0,0.9-2,2.6-3,2.6c-18-3.5-24,9.5-28,21.7c-2,4.3-9,4.3-11,6.9
										c-20.6,33.9-55.6,58.7-95.6,71c20.9-0.5,41.9-0.7,63-0.7c55.5,0,110.8-1.8,166.2-3.4c10.6-7.2,19.9-16.3,30.4-24.5
										c2-2.6,8-0.9,12-3.5c12-6.9,22-13,35-18.2c11-4.3,18-13.9,28-20.8c2-1.7,6-1.7,6-2.6c6-6.9,2-19.1,12-19.9
										c12-0.9,20-8.7,26-16.5c4-5.2,16-2.6,18-9.5c2-8.7,4-19.1,16-19.9c1,0,3-2.6,3-5.2h5C611.4,94.4,606.4,88.9,608.9,83.9z"/>
								</g>
							</g>
							<g>
								<g>
									<defs>
										<rect id="SVGID_32_" x="-2.3" y="-3.2" width="769.5" height="334.4"/>
									</defs>
									<clipPath id="SVGID_33_">
										<use xlink:href="#SVGID_32_"  style="overflow:visible;"/>
									</clipPath>
									
										<radialGradient id="SVGID_34_" cx="611.4901" cy="953.0271" r="96.7" gradientTransform="matrix(1.22 0.55 -0.29 0.48 -6.6297 -592.7637)" gradientUnits="userSpaceOnUse">
										<stop  offset="0" style="stop-color:#FFFFFF"/>
										<stop  offset="1" style="stop-color:#FFFFFF;stop-opacity:0"/>
									</radialGradient>
									<path class="st14" d="M580.4,253.4c-15.3,25.6-80.6,22.6-145.9-6.7s-105.9-73.8-90.6-99.3s80.6-22.6,145.9,6.7
										S595.7,227.8,580.4,253.4z"/>
								</g>
							</g>
							<g>
								<g>
									<defs>
										<rect id="SVGID_35_" x="-2.3" y="-3.2" width="769.5" height="334.4"/>
									</defs>
									<clipPath id="SVGID_36_">
										<use xlink:href="#SVGID_35_"  style="overflow:visible;"/>
									</clipPath>
									
										<radialGradient id="SVGID_37_" cx="522.8109" cy="-836.7493" r="96.7" gradientTransform="matrix(1 0 0 -1 0 -389.2)" gradientUnits="userSpaceOnUse">
										<stop  offset="0" style="stop-color:#FFFFFF"/>
										<stop  offset="1" style="stop-color:#FFFFFF;stop-opacity:0"/>
									</radialGradient>
									<path class="st15" d="M455,253.6c-15.3,25.6-80.6,22.6-145.9-6.7s-105.9-73.8-90.6-99.3s80.6-22.6,145.9,6.7
										S470.3,228,455,253.6z"/>
								</g>
							</g>
							<g>
								<g>
									<defs>
										<rect id="SVGID_38_" x="-2.3" y="-3.2" width="769.5" height="334.4"/>
									</defs>
									<clipPath id="SVGID_39_">
										<use xlink:href="#SVGID_38_"  style="overflow:visible;"/>
									</clipPath>
									
										<radialGradient id="SVGID_40_" cx="-317.99" cy="2959.3547" r="96.64" gradientTransform="matrix(1.22 -0.56 0.29 0.48 177.2757 -1398.7994)" gradientUnits="userSpaceOnUse">
										<stop  offset="0" style="stop-color:#FFFFFF"/>
										<stop  offset="1" style="stop-color:#FFFFFF;stop-opacity:0"/>
									</radialGradient>
									<path class="st16" d="M763.9,147.9c15.5,25.5-24.6,70.2-89.7,100s-130.3,33.2-145.8,7.7s24.6-70.2,89.7-100
										S748.4,122.5,763.9,147.9z"/>
								</g>
							</g>
							<g>
								<defs>
									<rect id="SVGID_41_" x="-2.3" y="-3.2" width="769.5" height="334.4"/>
								</defs>
								<clipPath id="SVGID_42_">
									<use xlink:href="#SVGID_41_"  style="overflow:visible;"/>
								</clipPath>
							</g>
							<g>
								<g>
									<defs>
										<rect id="SVGID_43_" x="-2.3" y="-3.2" width="769.5" height="334.4"/>
									</defs>
									<clipPath id="SVGID_44_">
										<use xlink:href="#SVGID_43_"  style="overflow:visible;"/>
									</clipPath>
								</g>
							</g>
							<g>
								<defs>
									<rect id="SVGID_45_" x="-2.3" y="-3.2" width="769.5" height="334.4"/>
								</defs>
								<clipPath id="SVGID_46_">
									<use xlink:href="#SVGID_45_"  style="overflow:visible;"/>
								</clipPath>
							</g>
							<g>
								<g>
									<defs>
										<rect id="SVGID_47_" x="-2.3" y="-3.2" width="769.5" height="334.4"/>
									</defs>
									<clipPath id="SVGID_48_">
										<use xlink:href="#SVGID_47_"  style="overflow:visible;"/>
									</clipPath>
								</g>
							</g>
							<g>
								<g>
									<defs>
										<rect id="SVGID_49_" x="-2.3" y="-3.2" width="769.5" height="334.4"/>
									</defs>
									<clipPath id="SVGID_50_">
										<use xlink:href="#SVGID_49_"  style="overflow:visible;"/>
									</clipPath>
								</g>
							</g>
							<g>
								<g>
									<defs>
										<rect id="SVGID_51_" x="-2.3" y="-3.2" width="769.5" height="334.4"/>
									</defs>
									<clipPath id="SVGID_52_">
										<use xlink:href="#SVGID_51_"  style="overflow:visible;"/>
									</clipPath>
									
										<radialGradient id="SVGID_53_" cx="-86.5184" cy="2235.3967" r="96.74" gradientTransform="matrix(1.27 -0.13 9.000000e-02 0.66 20.0968 -1290.0322)" gradientUnits="userSpaceOnUse">
										<stop  offset="0" style="stop-color:#FFFFFF"/>
										<stop  offset="1" style="stop-color:#FFFFFF;stop-opacity:0"/>
									</radialGradient>
									<path class="st17" d="M235,182.8c4.9,35.4-46.2,69.8-114.2,76.9c-68,7.1-127.1-15.8-132-51.2S35,138.7,103,131.6
										C171,124.5,230.1,147.4,235,182.8z"/>
								</g>
							</g>
							<g>
								<g>
									<defs>
										<rect id="SVGID_54_" x="-2.3" y="-3.2" width="769.5" height="334.4"/>
									</defs>
									<clipPath id="SVGID_55_">
										<use xlink:href="#SVGID_54_"  style="overflow:visible;"/>
									</clipPath>
									
										<radialGradient id="SVGID_56_" cx="635.4846" cy="1453.2172" r="96.7578" gradientTransform="matrix(1.14 0.51 -0.23 0.39 -80.4739 -639.8869)" gradientUnits="userSpaceOnUse">
										<stop  offset="0" style="stop-color:#FFFFFF"/>
										<stop  offset="1" style="stop-color:#FFFFFF;stop-opacity:0"/>
									</radialGradient>
									<path class="st18" d="M419.7,300.6c-12.4,20.8-71.8,15.6-132.6-11.7s-100-66.3-87.6-87.1s71.8-15.6,132.6,11.6
										C392.9,240.8,432.1,279.8,419.7,300.6z"/>
								</g>
							</g>
							<g>
								<g>
									<defs>
										<rect id="SVGID_57_" x="-2.3" y="-3.2" width="769.5" height="334.4"/>
									</defs>
									<clipPath id="SVGID_58_">
										<use xlink:href="#SVGID_57_"  style="overflow:visible;"/>
									</clipPath>
								</g>
							</g>
							<g>
								<defs>
									<rect id="SVGID_59_" x="-2.3" y="-3.2" width="769.5" height="334.4"/>
								</defs>
								<clipPath id="SVGID_60_">
									<use xlink:href="#SVGID_59_"  style="overflow:visible;"/>
								</clipPath>
							</g>
							<g>
								<g>
									<defs>
										<rect id="SVGID_61_" x="-2.3" y="-3.2" width="769.5" height="334.4"/>
									</defs>
									<clipPath id="SVGID_62_">
										<use xlink:href="#SVGID_61_"  style="overflow:visible;"/>
									</clipPath>
									
										<radialGradient id="SVGID_63_" cx="338.1292" cy="1773.2642" r="96.7837" gradientTransform="matrix(1.26 0.2 -0.14 0.66 10.8041 -943.6827)" gradientUnits="userSpaceOnUse">
										<stop  offset="0" style="stop-color:#FFFFFF"/>
										<stop  offset="1" style="stop-color:#FFFFFF;stop-opacity:0"/>
									</radialGradient>
									<path class="st19" d="M311,311.5c-7.2,35.1-67.7,55-135.1,44.6s-116.2-47.3-109-82.4s67.7-55,135.1-44.6
										S318.2,276.4,311,311.5z"/>
								</g>
							</g>
							<g>
								<g>
									<defs>
										<rect id="SVGID_64_" x="-2.3" y="-3.2" width="769.5" height="334.4"/>
									</defs>
									<clipPath id="SVGID_65_">
										<use xlink:href="#SVGID_64_"  style="overflow:visible;"/>
									</clipPath>
									
										<radialGradient id="SVGID_66_" cx="468.7155" cy="1809.7341" r="96.6817" gradientTransform="matrix(1.26 0.2 -0.14 0.66 10.8041 -943.6827)" gradientUnits="userSpaceOnUse">
										<stop  offset="0" style="stop-color:#FFFFFF"/>
										<stop  offset="1" style="stop-color:#FFFFFF;stop-opacity:0"/>
									</radialGradient>
									<path class="st20" d="M470.6,360.9c-7.2,35.1-67.7,55-135.1,44.6s-116.2-47.3-109-82.4s67.7-55,135.1-44.6
										S477.8,325.9,470.6,360.9z"/>
								</g>
							</g>
							<g>
								<g>
									<defs>
										<rect id="SVGID_67_" x="-2.3" y="-3.2" width="769.5" height="334.4"/>
									</defs>
									<clipPath id="SVGID_68_">
										<use xlink:href="#SVGID_67_"  style="overflow:visible;"/>
									</clipPath>
									<path class="st21" d="M577.6,269.2c0,0.2-4,0.3-9,0.3s-9-0.1-9-0.3s4-0.3,9-0.3S577.6,269,577.6,269.2z"/>
								</g>
							</g>
							<g>
								<g>
									<defs>
										<rect id="SVGID_69_" x="-2.3" y="-3.2" width="769.5" height="334.4"/>
									</defs>
									<clipPath id="SVGID_70_">
										<use xlink:href="#SVGID_69_"  style="overflow:visible;"/>
									</clipPath>
									<path class="st22" d="M606.3,275c-0.9,0.1-1.8,0.2-2.7,0.2c-1.7,0.1-4,0.1-6.6,0.1s-4.9,0-6.6-0.1c-0.9,0-1.8-0.1-2.7-0.2
										c0.9-0.2,1.8-0.3,2.7-0.2c1.7-0.1,4-0.1,6.6-0.1s4.9,0,6.6,0.1C604.5,274.7,605.4,274.8,606.3,275z"/>
								</g>
							</g>
							<g>
								<g>
									<defs>
										<rect id="SVGID_71_" x="-2.3" y="-3.2" width="769.5" height="334.4"/>
									</defs>
									<clipPath id="SVGID_72_">
										<use xlink:href="#SVGID_71_"  style="overflow:visible;"/>
									</clipPath>
									<path class="st23" d="M620.9,267.5c0,0.2-3,0.3-6.7,0.3s-6.7-0.1-6.7-0.3s3-0.3,6.7-0.3S620.9,267.3,620.9,267.5z"/>
								</g>
							</g>
							<g>
								<g>
									<defs>
										<rect id="SVGID_73_" x="-2.3" y="-3.2" width="769.5" height="334.4"/>
									</defs>
									<clipPath id="SVGID_74_">
										<use xlink:href="#SVGID_73_"  style="overflow:visible;"/>
									</clipPath>
									<path class="st24" d="M617.6,288.3c-1.3,0.2-2.7,0.3-4,0.2c-2.5,0.1-5.9,0.1-9.7,0.1s-7.2,0-9.7-0.1c-1.3,0-2.7-0.1-4-0.2
										c1.3-0.1,2.7-0.2,4-0.2c2.5-0.1,5.9-0.1,9.7-0.1s7.2,0,9.7,0.1C614.9,288,616.3,288.1,617.6,288.3z"/>
								</g>
							</g>
							<g>
								<g>
									<defs>
										<rect id="SVGID_75_" x="-2.3" y="-3.2" width="769.5" height="334.4"/>
									</defs>
									<clipPath id="SVGID_76_">
										<use xlink:href="#SVGID_75_"  style="overflow:visible;"/>
									</clipPath>
									<path class="st25" d="M656.9,288.8c-0.9,0.2-1.9,0.3-2.8,0.2c-1.8,0.1-4.2,0.1-6.8,0.1s-5.1,0-6.8-0.1
										c-0.9,0-1.9-0.1-2.8-0.2c0.9-0.1,1.9-0.2,2.8-0.2c1.8-0.1,4.2-0.1,6.8-0.1s5.1,0,6.8,0.1S656.9,288.8,656.9,288.8z"/>
								</g>
							</g>
							<g>
								<g>
									<defs>
										<rect id="SVGID_77_" x="-2.3" y="-3.2" width="769.5" height="334.4"/>
									</defs>
									<clipPath id="SVGID_78_">
										<use xlink:href="#SVGID_77_"  style="overflow:visible;"/>
									</clipPath>
									<path class="st26" d="M700.9,290c-1.3,0.1-2.5,0.2-3.8,0.2c-2.4,0.1-5.6,0.1-9.2,0.1s-6.8,0-9.2-0.1
										c-1.3,0-2.5-0.1-3.8-0.2c1.3-0.2,2.5-0.3,3.8-0.2c2.4-0.1,5.6-0.1,9.2-0.1s6.8,0,9.2,0.1
										C698.4,289.7,699.6,289.8,700.9,290z"/>
								</g>
							</g>
							<g>
								<g>
									<defs>
										<rect id="SVGID_79_" x="-2.3" y="-3.2" width="769.5" height="334.4"/>
									</defs>
									<clipPath id="SVGID_80_">
										<use xlink:href="#SVGID_79_"  style="overflow:visible;"/>
									</clipPath>
									<path class="st27" d="M642.3,299.8c-1.4,0.2-2.7,0.3-4.1,0.2c-2.5,0.1-6,0.1-9.9,0.1s-7.4,0-9.9-0.1
										c-1.4,0-2.7-0.1-4.1-0.2c1.4-0.1,2.7-0.2,4.1-0.2c2.5-0.1,6-0.1,9.9-0.1s7.4,0,9.9,0.1
										C639.6,299.6,640.9,299.7,642.3,299.8z"/>
								</g>
							</g>
							<g>
								<g>
									<defs>
										<rect id="SVGID_81_" x="-2.3" y="-3.2" width="769.5" height="334.4"/>
									</defs>
									<clipPath id="SVGID_82_">
										<use xlink:href="#SVGID_81_"  style="overflow:visible;"/>
									</clipPath>
									<path class="st28" d="M667.6,296.9c0,0.2-1.6,0.3-3.7,0.3s-3.7-0.1-3.7-0.3s1.6-0.3,3.7-0.3
										C665.1,296.6,666.4,296.7,667.6,296.9z"/>
								</g>
							</g>
							<g>
								<g>
									<defs>
										<rect id="SVGID_83_" x="-2.3" y="-3.2" width="769.5" height="334.4"/>
									</defs>
									<clipPath id="SVGID_84_">
										<use xlink:href="#SVGID_83_"  style="overflow:visible;"/>
									</clipPath>
									<path class="st29" d="M631.6,293.5c0,0.2-2.7,0.3-6,0.3s-6-0.1-6-0.3s2.7-0.3,6-0.3S631.6,293.3,631.6,293.5z"/>
								</g>
							</g>
							<g>
								<g>
									<defs>
										<rect id="SVGID_85_" x="-2.3" y="-3.2" width="769.5" height="334.4"/>
									</defs>
									<clipPath id="SVGID_86_">
										<use xlink:href="#SVGID_85_"  style="overflow:visible;"/>
									</clipPath>
									<path class="st30" d="M592.3,313.7c-0.4,0.1-0.9,0.1-1.3,0.1c-0.8,0-2.1,0.1-3.6,0.1c-3,0.1-7.2,0.1-11.8,0.1
										s-8.8,0-11.8-0.1c-1.5,0-2.7-0.1-3.6-0.1c-0.4,0-0.9,0-1.3-0.1c0.4-0.1,0.9-0.1,1.3-0.1c0.8,0,2.1-0.1,3.6-0.1
										c3-0.1,7.2-0.1,11.8-0.1s8.8,0,11.8,0.1c1.5,0,2.7,0.1,3.6,0.1C591.4,313.6,591.9,313.6,592.3,313.7z"/>
								</g>
							</g>
							<g>
								<g>
									<defs>
										<rect id="SVGID_87_" x="-2.3" y="-3.2" width="769.5" height="334.4"/>
									</defs>
									<clipPath id="SVGID_88_">
										<use xlink:href="#SVGID_87_"  style="overflow:visible;"/>
									</clipPath>
									<path class="st31" d="M606.9,305.6c-1.2,0.1-2.5,0.2-3.7,0.2c-2.3,0.1-5.5,0.1-9,0.1s-6.7,0-9-0.1c-1.2,0-2.5-0.1-3.7-0.2
										c1.2-0.2,2.5-0.3,3.7-0.2c2.3-0.1,5.5-0.1,9-0.1s6.7,0,9,0.1C604.4,305.4,605.7,305.5,606.9,305.6z"/>
								</g>
							</g>
							<g>
								<g>
									<defs>
										<rect id="SVGID_89_" x="-2.3" y="-3.2" width="769.5" height="334.4"/>
									</defs>
									<clipPath id="SVGID_90_">
										<use xlink:href="#SVGID_89_"  style="overflow:visible;"/>
									</clipPath>
									<path class="st32" d="M504.9,249.2c3.3,0,6,0.1,6,0.3s-2.7,0.3-6,0.3s-6-0.1-6-0.3S501.6,249.2,504.9,249.2z"/>
								</g>
							</g>
							<g>
								<g>
									<defs>
										<rect id="SVGID_91_" x="-2.3" y="-3.2" width="769.5" height="334.4"/>
									</defs>
									<clipPath id="SVGID_92_">
										<use xlink:href="#SVGID_91_"  style="overflow:visible;"/>
									</clipPath>
									<path class="st33" d="M530.9,247.8c0,0.2-2.5,0.3-5.7,0.3s-5.7-0.1-5.7-0.3s2.5-0.3,5.7-0.3S530.9,247.6,530.9,247.8z"/>
								</g>
							</g>
							<g>
								<g>
									<defs>
										<rect id="SVGID_93_" x="-2.3" y="-3.2" width="769.5" height="334.4"/>
									</defs>
									<clipPath id="SVGID_94_">
										<use xlink:href="#SVGID_93_"  style="overflow:visible;"/>
									</clipPath>
									<path class="st34" d="M518.9,254.7c0,0.2-2.7,0.3-6,0.3c-3.3,0-6-0.1-6-0.3s2.7-0.3,6-0.3
										C516.2,254.4,518.9,254.6,518.9,254.7z"/>
								</g>
							</g>
							<g>
								<g>
									<defs>
										<rect id="SVGID_95_" x="-2.3" y="-3.2" width="769.5" height="334.4"/>
									</defs>
									<clipPath id="SVGID_96_">
										<use xlink:href="#SVGID_95_"  style="overflow:visible;"/>
									</clipPath>
									<ellipse class="st35" cx="532.9" cy="254.2" rx="4" ry="0.3"/>
								</g>
							</g>
							<g>
								<g>
									<defs>
										<rect id="SVGID_97_" x="-2.3" y="-3.2" width="769.5" height="334.4"/>
									</defs>
									<clipPath id="SVGID_98_">
										<use xlink:href="#SVGID_97_"  style="overflow:visible;"/>
									</clipPath>
									<path class="st36" d="M549.6,258.2c0,0.2-2.5,0.3-5.7,0.3s-5.7-0.1-5.7-0.3s2.5-0.3,5.7-0.3S549.6,258,549.6,258.2z"/>
								</g>
							</g>
							<g>
								<g>
									<defs>
										<rect id="SVGID_99_" x="-2.3" y="-3.2" width="769.5" height="334.4"/>
									</defs>
									<clipPath id="SVGID_100_">
										<use xlink:href="#SVGID_99_"  style="overflow:visible;"/>
									</clipPath>
									<path class="st37" d="M528.9,259.9c0,0.2-1.5,0.3-3.3,0.3s-3.3-0.1-3.3-0.3s1.5-0.3,3.3-0.3
										C526.7,259.6,527.8,259.7,528.9,259.9z"/>
								</g>
							</g>
							<g>
								<g>
									<defs>
										<rect id="SVGID_101_" x="-2.3" y="-3.2" width="769.5" height="334.4"/>
									</defs>
									<clipPath id="SVGID_102_">
										<use xlink:href="#SVGID_101_"  style="overflow:visible;"/>
									</clipPath>
									<path class="st38" d="M572.3,265.1c0,0.2-2.2,0.3-5,0.3s-5-0.1-5-0.3s2.2-0.3,5-0.3C569,264.8,570.6,264.9,572.3,265.1z"/>
								</g>
							</g>
							<g>
								<g>
									<defs>
										<rect id="SVGID_103_" x="-2.3" y="-3.2" width="769.5" height="334.4"/>
									</defs>
									<clipPath id="SVGID_104_">
										<use xlink:href="#SVGID_103_"  style="overflow:visible;"/>
									</clipPath>
									<path class="st39" d="M591.6,266.9c0,0.2-1.5,0.3-3.3,0.3s-3.3-0.1-3.3-0.3s1.5-0.3,3.3-0.3S591.6,266.7,591.6,266.9z"/>
								</g>
							</g>
							<g>
								<g>
									<defs>
										<rect id="SVGID_105_" x="-2.3" y="-3.2" width="769.5" height="334.4"/>
									</defs>
									<clipPath id="SVGID_106_">
										<use xlink:href="#SVGID_105_"  style="overflow:visible;"/>
									</clipPath>
									<path class="st40" d="M627.6,275c0,0.2-1.9,0.3-4.3,0.3s-4.3-0.1-4.3-0.3s1.9-0.3,4.3-0.3S627.6,274.8,627.6,275z"/>
								</g>
							</g>
							<g>
								<g>
									<defs>
										<rect id="SVGID_107_" x="-2.3" y="-3.2" width="769.5" height="334.4"/>
									</defs>
									<clipPath id="SVGID_108_">
										<use xlink:href="#SVGID_107_"  style="overflow:visible;"/>
									</clipPath>
									<path class="st41" d="M628.9,280.7c0,0.2-1,0.3-2.3,0.3s-2.3-0.1-2.3-0.3s1-0.3,2.3-0.3
										C627.4,280.4,628.1,280.5,628.9,280.7z"/>
								</g>
							</g>
							<g>
								<g>
									<defs>
										<rect id="SVGID_109_" x="-2.3" y="-3.2" width="769.5" height="334.4"/>
									</defs>
									<clipPath id="SVGID_110_">
										<use xlink:href="#SVGID_109_"  style="overflow:visible;"/>
									</clipPath>
									<path class="st42" d="M574.3,280.2c0,0.2-4,0.3-9,0.3s-9-0.1-9-0.3s4-0.3,9-0.3S574.3,280,574.3,280.2z"/>
								</g>
							</g>
							<g>
								<g>
									<defs>
										<rect id="SVGID_111_" x="-2.3" y="-3.2" width="769.5" height="334.4"/>
									</defs>
									<clipPath id="SVGID_112_">
										<use xlink:href="#SVGID_111_"  style="overflow:visible;"/>
									</clipPath>
									<path class="st43" d="M556.9,321.2c0,0.2-2.7,0.3-6,0.3s-6-0.1-6-0.3s2.7-0.3,6-0.3C552.9,320.8,554.9,320.9,556.9,321.2z"
										/>
								</g>
							</g>
							<g>
								<g>
									<defs>
										<rect id="SVGID_113_" x="-2.3" y="-3.2" width="769.5" height="334.4"/>
									</defs>
									<clipPath id="SVGID_114_">
										<use xlink:href="#SVGID_113_"  style="overflow:visible;"/>
									</clipPath>
									<path class="st44" d="M510.3,317.7c0,0.2-3.1,0.3-7,0.3s-7-0.1-7-0.3s3.1-0.3,7-0.3S510.3,317.6,510.3,317.7z"/>
								</g>
							</g>
							<g>
								<g>
									<defs>
										<rect id="SVGID_115_" x="-2.3" y="-3.2" width="769.5" height="334.4"/>
									</defs>
									<clipPath id="SVGID_116_">
										<use xlink:href="#SVGID_115_"  style="overflow:visible;"/>
									</clipPath>
									<path class="st45" d="M540.3,315.4c0,0.2-3.9,0.3-8.7,0.3s-8.7-0.1-8.7-0.3s3.9-0.3,8.7-0.3
										C534.5,315,537.4,315.1,540.3,315.4z"/>
								</g>
							</g>
							<g>
								<g>
									<defs>
										<rect id="SVGID_117_" x="-2.3" y="-3.2" width="769.5" height="334.4"/>
									</defs>
									<clipPath id="SVGID_118_">
										<use xlink:href="#SVGID_117_"  style="overflow:visible;"/>
									</clipPath>
									<path class="st46" d="M518.9,323.5c0,0.2-1.3,0.3-3,0.3s-3-0.1-3-0.3s1.3-0.3,3-0.3C516.9,323.1,517.9,323.2,518.9,323.5z"
										/>
								</g>
							</g>
							<g>
								<g>
									<defs>
										<rect id="SVGID_119_" x="-2.3" y="-3.2" width="769.5" height="334.4"/>
									</defs>
									<clipPath id="SVGID_120_">
										<use xlink:href="#SVGID_119_"  style="overflow:visible;"/>
									</clipPath>
									<path class="st47" d="M588.9,322.4c0,0.2-1.6,0.3-3.7,0.3s-3.7-0.1-3.7-0.3s1.6-0.3,3.7-0.3S588.9,322.2,588.9,322.4z"/>
								</g>
							</g>
							<g>
								<g>
									<defs>
										<rect id="SVGID_121_" x="-2.3" y="-3.2" width="769.5" height="334.4"/>
									</defs>
									<clipPath id="SVGID_122_">
										<use xlink:href="#SVGID_121_"  style="overflow:visible;"/>
									</clipPath>
									<path class="st48" d="M578.9,319.5c0,0.2-3.7,0.3-8.3,0.3s-8.3-0.1-8.3-0.3s3.7-0.3,8.3-0.3S578.9,319.3,578.9,319.5z"/>
								</g>
							</g>
							<g>
								<g>
									<defs>
										<rect id="SVGID_123_" x="-2.3" y="-3.2" width="769.5" height="334.4"/>
									</defs>
									<clipPath id="SVGID_124_">
										<use xlink:href="#SVGID_123_"  style="overflow:visible;"/>
									</clipPath>
									<path class="st49" d="M646.9,315.4c-0.5,0.1-1.1,0.1-1.6,0.1c-1,0-2.5,0.1-4.3,0.1c-3.6,0.1-8.6,0.1-14.1,0.1
										s-10.5,0-14.1-0.1c-1.8,0-3.3-0.1-4.3-0.1c-0.5,0-1.1,0-1.6-0.1c0.5-0.1,1.1-0.1,1.6-0.1c1,0,2.5-0.1,4.3-0.1
										c3.6-0.1,8.6-0.1,14.1-0.1s10.5,0,14.1,0.1c1.8,0,3.3,0.1,4.3,0.1S646.9,315.4,646.9,315.4z"/>
								</g>
							</g>
							<g>
								<g>
									<defs>
										<rect id="SVGID_125_" x="-2.3" y="-3.2" width="769.5" height="334.4"/>
									</defs>
									<clipPath id="SVGID_126_">
										<use xlink:href="#SVGID_125_"  style="overflow:visible;"/>
									</clipPath>
									<path class="st50" d="M676.3,284.2c0,0.2-3.4,0.3-7.7,0.3s-7.7-0.1-7.7-0.3s3.4-0.3,7.7-0.3
										C671.2,283.8,673.7,283.9,676.3,284.2z"/>
								</g>
							</g>
							<g>
								<g>
									<defs>
										<rect id="SVGID_127_" x="-2.3" y="-3.2" width="769.5" height="334.4"/>
									</defs>
									<clipPath id="SVGID_128_">
										<use xlink:href="#SVGID_127_"  style="overflow:visible;"/>
									</clipPath>
									<path class="st51" d="M651.6,269.8c0,0.2-3.1,0.3-7,0.3s-7-0.1-7-0.3s3.1-0.3,7-0.3S651.6,269.6,651.6,269.8z"/>
								</g>
							</g>
							<g>
								<g>
									<defs>
										<rect id="SVGID_129_" x="-2.3" y="-3.2" width="769.5" height="334.4"/>
									</defs>
									<clipPath id="SVGID_130_">
										<use xlink:href="#SVGID_129_"  style="overflow:visible;"/>
									</clipPath>
									<rect x="9.6" y="-101.6" class="st52" width="750" height="500"/>
								</g>
							</g>
						</g>
					</g>
					<g>
						<defs>
							<rect id="SVGID_131_" x="-3.4" y="-3.4" width="769.5" height="280.3"/>
						</defs>
						<clipPath id="SVGID_132_">
							<use xlink:href="#SVGID_131_"  style="overflow:visible;"/>
						</clipPath>
						<rect x="-3.4" y="-3.4" class="st53" width="774.1" height="280.3"/>
					</g>
				</g>
			</g>
		</g>
	</g>
</g>
</svg>
