<?xml version="1.0" encoding="utf-8"?>
<!-- Generator: Adobe Illustrator 23.0.5, SVG Export Plug-In . SVG Version: 6.00 Build 0)  -->
<svg version="1.1" id="OBJECTS" xmlns="http://www.w3.org/2000/svg" xmlns:xlink="http://www.w3.org/1999/xlink" x="0px" y="0px"
	 viewBox="0 0 762.7 280.7" style="enable-background:new 0 0 762.7 280.7;" xml:space="preserve">
<style type="text/css">
	.st0{clip-path:url(#SVGID_2_);}
	.st1{clip-path:url(#SVGID_4_);}
	.st2{clip-path:url(#SVGID_6_);}
	.st3{clip-path:url(#SVGID_8_);fill:#FFFFE9;}
	.st4{clip-path:url(#SVGID_10_);fill:#FFF9DE;}
	.st5{opacity:0.3;clip-path:url(#SVGID_12_);fill:url(#SVGID_13_);enable-background:new    ;}
	.st6{opacity:0.4;clip-path:url(#SVGID_15_);}
	.st7{opacity:0.4;fill:url(#SVGID_16_);enable-background:new    ;}
	.st8{fill:url(#SVGID_17_);}
	.st9{opacity:0.3;clip-path:url(#SVGID_19_);fill:url(#SVGID_20_);enable-background:new    ;}
	.st10{clip-path:url(#SVGID_24_);fill:url(#SVGID_25_);}
	.st11{clip-path:url(#SVGID_27_);fill:url(#SVGID_28_);}
	.st12{clip-path:url(#SVGID_30_);fill:url(#SVGID_31_);}
	.st13{opacity:0.5;clip-path:url(#SVGID_33_);fill:url(#SVGID_34_);enable-background:new    ;}
	.st14{opacity:0.3;clip-path:url(#SVGID_36_);fill:url(#SVGID_37_);enable-background:new    ;}
	.st15{opacity:0.6;clip-path:url(#SVGID_39_);fill:url(#SVGID_40_);enable-background:new    ;}
	.st16{clip-path:url(#SVGID_42_);fill:url(#SVGID_43_);}
	.st17{clip-path:url(#SVGID_45_);fill:url(#SVGID_46_);}
	.st18{clip-path:url(#SVGID_48_);fill:url(#SVGID_49_);}
	.st19{clip-path:url(#SVGID_51_);fill:url(#SVGID_52_);}
	.st20{clip-path:url(#SVGID_54_);fill:url(#SVGID_55_);}
	.st21{clip-path:url(#SVGID_57_);fill:url(#SVGID_58_);}
	.st22{opacity:0.4;clip-path:url(#SVGID_60_);fill:url(#SVGID_61_);enable-background:new    ;}
	.st23{opacity:0.5;clip-path:url(#SVGID_63_);fill:url(#SVGID_64_);enable-background:new    ;}
	.st24{clip-path:url(#SVGID_66_);fill:url(#SVGID_67_);}
	.st25{clip-path:url(#SVGID_69_);fill:url(#SVGID_70_);}
	.st26{opacity:0.3;clip-path:url(#SVGID_78_);fill:url(#SVGID_79_);enable-background:new    ;}
	.st27{opacity:0.3;clip-path:url(#SVGID_87_);fill:url(#SVGID_88_);enable-background:new    ;}
	.st28{clip-path:url(#SVGID_90_);fill:#FFFFEB;}
	.st29{clip-path:url(#SVGID_92_);fill:#FFFFEB;}
	.st30{clip-path:url(#SVGID_94_);fill:#FFFFEB;}
	.st31{clip-path:url(#SVGID_96_);fill:#FFFFEB;}
	.st32{clip-path:url(#SVGID_98_);fill:#FFFFEB;}
	.st33{clip-path:url(#SVGID_100_);fill:#FFFFEB;}
	.st34{clip-path:url(#SVGID_102_);fill:#FFFFEB;}
	.st35{clip-path:url(#SVGID_104_);fill:#FFFFEB;}
	.st36{clip-path:url(#SVGID_106_);fill:#FFFFEB;}
	.st37{clip-path:url(#SVGID_108_);fill:#FFFFEB;}
	.st38{clip-path:url(#SVGID_110_);fill:#FFFFEB;}
	.st39{clip-path:url(#SVGID_112_);fill:#FFFFEB;}
	.st40{clip-path:url(#SVGID_114_);fill:#FFFFEB;}
	.st41{clip-path:url(#SVGID_116_);fill:#FFFFEB;}
	.st42{clip-path:url(#SVGID_118_);fill:#FFFFEB;}
	.st43{clip-path:url(#SVGID_120_);fill:#FFFFEB;}
	.st44{clip-path:url(#SVGID_122_);fill:#FFFFEB;}
	.st45{clip-path:url(#SVGID_124_);fill:#FFFFEB;}
	.st46{clip-path:url(#SVGID_126_);fill:#FFFFEB;}
	.st47{clip-path:url(#SVGID_128_);fill:#FFFFEB;}
	.st48{clip-path:url(#SVGID_130_);fill:#FFFFEB;}
	.st49{clip-path:url(#SVGID_132_);fill:#FFFFEB;}
	.st50{clip-path:url(#SVGID_134_);fill:#FFFFEB;}
	.st51{clip-path:url(#SVGID_136_);fill:#FFFFEB;}
	.st52{clip-path:url(#SVGID_138_);fill:#FFFFEB;}
	.st53{clip-path:url(#SVGID_140_);fill:#FFFFEB;}
	.st54{clip-path:url(#SVGID_142_);fill:#FFFFEB;}
	.st55{clip-path:url(#SVGID_144_);fill:#FFFFEB;}
	.st56{clip-path:url(#SVGID_146_);fill:#FFFFEB;}
	.st57{clip-path:url(#SVGID_148_);fill:#FFFFEB;}
	.st58{clip-path:url(#SVGID_150_);fill:#FFFFEB;}
	.st59{clip-path:url(#SVGID_152_);fill:none;}
	.st60{clip-path:url(#SVGID_6_);fill:none;}
</style>
<title>Mesa de trabajo 1</title>
<g>
	<defs>
		<rect id="SVGID_1_" width="762.7" height="280.7"/>
	</defs>
	<clipPath id="SVGID_2_">
		<use xlink:href="#SVGID_1_"  style="overflow:visible;"/>
	</clipPath>
	<g class="st0">
		<defs>
			<rect id="SVGID_3_" x="-4.1" y="3.4" width="769.5" height="280.3"/>
		</defs>
		<clipPath id="SVGID_4_">
			<use xlink:href="#SVGID_3_"  style="overflow:visible;"/>
		</clipPath>
		<g class="st1">
			<defs>
				<rect id="SVGID_5_" x="-4.1" y="3.4" width="769.5" height="280.3"/>
			</defs>
			<clipPath id="SVGID_6_">
				<use xlink:href="#SVGID_5_"  style="overflow:visible;"/>
			</clipPath>
			<g class="st2">
				<g>
					<defs>
						<rect id="SVGID_7_" x="-4.1" y="3.4" width="769.5" height="334.4"/>
					</defs>
					<clipPath id="SVGID_8_">
						<use xlink:href="#SVGID_7_"  style="overflow:visible;"/>
					</clipPath>
					<path class="st3" d="M589.5,72.3c0,33.1-26.9,60-60,60s-60-26.9-60-60s26.9-60,60-60S589.5,39.2,589.5,72.3z"/>
				</g>
				<g>
					<defs>
						<rect id="SVGID_9_" x="-4.1" y="3.4" width="769.5" height="334.4"/>
					</defs>
					<clipPath id="SVGID_10_">
						<use xlink:href="#SVGID_9_"  style="overflow:visible;"/>
					</clipPath>
					<path class="st4" d="M769.9,278.5c-34-32.8-121.2-56.2-223.4-56.2c-131.8,0-238.7,38.8-238.7,86.8s106.9,86.8,238.7,86.8
						c102.2,0,189.4-23.4,223.4-56.2V278.5z"/>
				</g>
				<g>
					<defs>
						<rect id="SVGID_11_" x="-4.1" y="3.4" width="769.5" height="334.4"/>
					</defs>
					<clipPath id="SVGID_12_">
						<use xlink:href="#SVGID_11_"  style="overflow:visible;"/>
					</clipPath>
					
						<linearGradient id="SVGID_13_" gradientUnits="userSpaceOnUse" x1="429.2017" y1="-642.4252" x2="567.1459" y2="-642.4252" gradientTransform="matrix(1 0 0 -1 0 -321.1814)">
						<stop  offset="0" style="stop-color:#83C1C4"/>
						<stop  offset="1" style="stop-color:#97AFAF"/>
					</linearGradient>
					<path class="st5" d="M520.1,301.8c-7.7-0.5-16.1,0.3-23.9,0.3c-17.3,0.1-34.6,1.7-51.7,4.9c-6.5,1.2-17.4,3.7-15,10.9
						c2.6,7.8,10.6,9.7,17.4,14.3c8.4,5.6,13.9,11.9,25,11.1c9.7-0.7,20.9-3.7,29.8-6.8c11.2-4,22.2-8.7,32.8-14
						c4.2-2,7.9-4,12.4-5.2c3.5-0.7,6.8-2,9.8-3.8c4.8-3.3,10.6-8.7,10.4-14.4L520.1,301.8z"/>
				</g>
				<g>
					<defs>
						<rect id="SVGID_14_" x="-4.1" y="3.4" width="769.5" height="334.4"/>
					</defs>
					<clipPath id="SVGID_15_">
						<use xlink:href="#SVGID_14_"  style="overflow:visible;"/>
					</clipPath>
					<g class="st6">
						
							<linearGradient id="SVGID_16_" gradientUnits="userSpaceOnUse" x1="376.5303" y1="-578.7907" x2="574.1409" y2="-578.7907" gradientTransform="matrix(1 0 0 -1 0 -321.1814)">
							<stop  offset="0" style="stop-color:#83C1C4"/>
							<stop  offset="1" style="stop-color:#97AFAF"/>
						</linearGradient>
						<path class="st7" d="M533.8,247.2c-12.1-1.4-23.4-4.8-35.9-5.2c-15.1-0.4-30.3,0-45.4,0h-30c-12.6,0-24.9-0.4-37.2,2.2
							c-3.4,0.7-6.4,0.8-7.9,3.9c-2.3,4.7,0.2,13.7,2.6,17.6c3.1,5,5.8,5.3,12,6.3c20.6,3.1,42.7,0,63.5,0c18.3,0,36.3-1.4,52.7-8.5
							c5.5-2.4,8.2-4.5,14.6-4.5c5.5,0,7.4-0.2,11.9-2.7c4.5-2.5,9.4-3.9,14.5-4.2c3-0.2,6-0.4,9.1-0.4c5.2,0,10.8-2,15.8-1.8
							L533.8,247.2z"/>
						
							<linearGradient id="SVGID_17_" gradientUnits="userSpaceOnUse" x1="574.0909" y1="-570.9407" x2="575.3309" y2="-570.9407" gradientTransform="matrix(1 0 0 -1 0 -321.1814)">
							<stop  offset="0" style="stop-color:#83C1C4"/>
							<stop  offset="1" style="stop-color:#97AFAF"/>
						</linearGradient>
						<path class="st8" d="M574,249.7l1.2,0.1C574.8,249.7,574.4,249.7,574,249.7z"/>
					</g>
				</g>
				<g>
					<defs>
						<rect id="SVGID_18_" x="-4.1" y="3.4" width="769.5" height="334.4"/>
					</defs>
					<clipPath id="SVGID_19_">
						<use xlink:href="#SVGID_18_"  style="overflow:visible;"/>
					</clipPath>
					
						<linearGradient id="SVGID_20_" gradientUnits="userSpaceOnUse" x1="542.2116" y1="-625.6022" x2="804.3515" y2="-625.6022" gradientTransform="matrix(1 0 0 -1 0 -321.1814)">
						<stop  offset="0" style="stop-color:#83C1C4"/>
						<stop  offset="1" style="stop-color:#97AFAF"/>
					</linearGradient>
					<path class="st9" d="M768.8,253.9c-18.4-2.1-37.2-3.3-55.4-6.5c-24-4.2-51-1.6-75.4-1.6c-13.3,0-26.3,0.1-39.5,1.2
						c-16,1.3-29.7,5.8-44.7,9.2l-11.5,0.4c-1.2,2,6.3,10,8.4,12.2c4.2,4.4,10.4,6.2,17,7.3c6.1,1.1,13.4,0.9,19.1,2.6
						c4.3,1.3,7.7,4.9,11.5,6.9c3.1,1.7,9.5,3.3,11.5,6c3.2,4.4,1.3,8.3,7.5,11.2c2.7,1.3,6.5,1.7,8.9,3.1c2.8,1.6,5.4,4.5,7.7,6.7
						c7.3,7,14.2,13.6,24.2,17.6c11.4,4.6,20.9,12.6,32.6,17.1s26.7,8.1,39.2,9.9c13.1,1.9,26.7,7.5,39.1,6.5V253.9H768.8z"/>
				</g>
				<g>
					<defs>
						<rect id="SVGID_21_" x="-4.1" y="3.4" width="769.5" height="334.4"/>
					</defs>
					<clipPath id="SVGID_22_">
						<use xlink:href="#SVGID_21_"  style="overflow:visible;"/>
					</clipPath>
				</g>
				<g>
					<defs>
						<rect id="SVGID_23_" x="-4.1" y="3.4" width="769.5" height="334.4"/>
					</defs>
					<clipPath id="SVGID_24_">
						<use xlink:href="#SVGID_23_"  style="overflow:visible;"/>
					</clipPath>
					
						<linearGradient id="SVGID_25_" gradientUnits="userSpaceOnUse" x1="382.9409" y1="-578.0007" x2="382.9409" y2="-411.7907" gradientTransform="matrix(1 0 0 -1 0 -321.1814)">
						<stop  offset="0.24" style="stop-color:#BCD4D4"/>
						<stop  offset="0.93" style="stop-color:#A7CACA"/>
						<stop  offset="1" style="stop-color:#A4C9C9"/>
					</linearGradient>
					<path class="st10" d="M769.9,160.9l-0.4-1.1c-6.6-1.2-12.6-4.9-19.4-6.2s-14.5-2.6-21.1-3.8c-14.4-2.6-26-7.2-38.7-14.1
						c-11.3-6.1-25.4-11.5-36.2-19c-10.2-7.1-20.9-16.1-32.1-21.7c-5.5-2.7-14.3-5.8-20.6-4.1c-3.6,1-4,3.6-6.9,4.6
						c-5.9,2-5.1,0.1-8.6,0c-8.8-0.2-10,0.7-16.3,6.7c-5.2,4.9-8.8,6.7-15.8,9.3c-7.3,2.7-11.1,6.7-17.7,10.2
						c-5.6,2.9-14.6,5-20.9,7.5c-13.3,5.4-27.6,7.8-41.2,12.8c-9.3,3.4-13.7,5.7-24.2,3.7c-9.2-1.7-12.5-5.5-21.4-3.5
						c-8.7,1.9-9.2,4.5-18.6-0.6c-5.5-3-11.3-6.5-16.3-9.7c-11.2-7.3-31.3-20.7-45.6-21.9c-16.6-1.4-17.5,10-32.5,14.2
						c-11,3.1-26.5,1.1-36.6,7.7c-4.6,3.1-9.4,6-14.4,8.6c-6.4,3.3-7.8,7.3-13.1,11.5c-15.1,12.2-67.6-19.3-73.7-1.1
						c-15.8,0.7-30.4-2.7-45.7-6s-27.2-10.8-40.5-16.1c-6.5-2.6-13.1-4.4-19.8-7.5c-5.4-2.5-15.7-6.6-21.4-3.8
						c-3.2,1.6-9.9,10.7-12.3,13c-5.6,5.7-8.1,7.3-16.2,10c-7.3,2.4-14.8,6.5-22.2,7.9l-3.6,0.6v102.8c9.7,3.5,22.6,4,32.1,4.4
						c23.7,1.1,47.4,0.7,71.1-1.1c50.5-4,100.4-5.1,151.1-5.1c69.2,0,138.2-2.9,207.3-4.4c63.2-1.4,126.5,1.1,189.7,0.9
						c42.3-0.1,81.6,0.4,122.6-4.7v-80.9H769.9z"/>
				</g>
				<g>
					<defs>
						<rect id="SVGID_26_" x="-4.1" y="3.4" width="769.5" height="334.4"/>
					</defs>
					<clipPath id="SVGID_27_">
						<use xlink:href="#SVGID_26_"  style="overflow:visible;"/>
					</clipPath>
					
						<linearGradient id="SVGID_28_" gradientUnits="userSpaceOnUse" x1="171.2908" y1="-577.9007" x2="171.2908" y2="-430.9493" gradientTransform="matrix(1 0 0 -1 0 -321.1814)">
						<stop  offset="0.24" style="stop-color:#BCD4D4"/>
						<stop  offset="0.58" style="stop-color:#A7CBCB"/>
						<stop  offset="1" style="stop-color:#86BDBD"/>
					</linearGradient>
					<path class="st11" d="M282.8,179.5c2-2.6,9-2.6,11-6.9c4-12.1,10-25.1,28-21.7c1,0,3-1.7,3-2.6c-3-12.1,7-15.6,16-22.5
						c2-1.7,0-6.9,1-10.4c0.6-2.6,2.4-4.7,4.9-5.6c-15.6-0.8-16.8,10.2-31.4,14.3c-11,3.1-26.5,1.1-36.6,7.7
						c-4.6,3.1-9.4,6-14.4,8.6c-6.4,3.3-7.8,7.3-13.1,11.5c-15.1,12.2-67.6-19.3-73.7-1.1c-15.8,0.7-30.4-2.7-45.7-6
						s-27.2-10.8-40.5-16.1c-6.5-2.6-13.1-4.4-19.8-7.5c-5.4-2.5-15.7-6.6-21.4-3.8c-3.2,1.6-9.9,10.7-12.3,13
						c-5.6,5.7-8.1,7.3-16.2,10c-7.3,2.4-14.8,6.5-22.2,7.9l-3.6,0.6v102.8c9.7,3.5,22.6,4,32.1,4.4c23.7,1.1,47.4,0.7,71.1-1.1
						c29.5-2.3,58.7-3.7,88.1-4.4C227.1,238.2,262.2,213.5,282.8,179.5z"/>
				</g>
				<g>
					<defs>
						<rect id="SVGID_29_" x="-4.1" y="3.4" width="769.5" height="334.4"/>
					</defs>
					<clipPath id="SVGID_30_">
						<use xlink:href="#SVGID_29_"  style="overflow:visible;"/>
					</clipPath>
					
						<linearGradient id="SVGID_31_" gradientUnits="userSpaceOnUse" x1="397.9022" y1="-571.7906" x2="397.9022" y2="-411.6122" gradientTransform="matrix(1 0 0 -1 0 -321.1814)">
						<stop  offset="0.24" style="stop-color:#BCD4D4"/>
						<stop  offset="0.58" style="stop-color:#A7CBCB"/>
						<stop  offset="1" style="stop-color:#86BDBD"/>
					</linearGradient>
					<path class="st12" d="M607.1,90.5c-1.9-0.2-3.8,0-5.6,0.4c-3.6,1-4,3.6-6.9,4.6c-5.9,2-5.1,0.1-8.6,0c-8.8-0.2-10,0.7-16.3,6.7
						c-5.2,4.9-8.8,6.7-15.8,9.3c-7.3,2.7-11.1,6.7-17.7,10.2c-5.6,2.9-14.6,5-20.9,7.5c-13.3,5.4-27.6,7.8-41.2,12.8
						c-9.3,3.4-13.7,5.7-24.2,3.7c-9.2-1.7-12.5-5.5-21.4-3.5c-8.7,1.9-9.2,4.5-18.6-0.6c-5.5-3-11.3-6.5-16.3-9.7
						c-11.2-7.3-31.3-20.7-45.6-21.9c-0.4,0-0.7,0-1.1-0.1c-2.5,0.9-4.3,3-4.9,5.6c-1,3.5,1,8.7-1,10.4c-9,6.9-19,10.4-16,22.5
						c0,0.9-2,2.6-3,2.6c-18-3.5-24,9.5-28,21.7c-2,4.3-9,4.3-11,6.9c-20.6,33.9-55.6,58.7-95.6,71c20.9-0.5,41.9-0.7,63-0.7
						c55.5,0,110.8-1.8,166.2-3.4c10.6-7.2,19.9-16.3,30.4-24.5c2-2.6,8-0.9,12-3.5c12-6.9,22-13,35-18.2c11-4.3,18-13.9,28-20.8
						c2-1.7,6-1.7,6-2.6c6-6.9,2-19.1,12-19.9c12-0.9,20-8.7,26-16.5c4-5.2,16-2.6,18-9.5c2-8.7,4-19.1,16-19.9c1,0,3-2.6,3-5.2h5
						C609.6,101,604.6,95.5,607.1,90.5z"/>
				</g>
				<g>
					<defs>
						<rect id="SVGID_32_" x="-4.1" y="3.4" width="769.5" height="334.4"/>
					</defs>
					<clipPath id="SVGID_33_">
						<use xlink:href="#SVGID_32_"  style="overflow:visible;"/>
					</clipPath>
					
						<radialGradient id="SVGID_34_" cx="602.7031" cy="-5.6955" r="96.7" gradientTransform="matrix(1.22 0.55 0.29 -0.48 -272.4357 -126.6117)" gradientUnits="userSpaceOnUse">
						<stop  offset="0" style="stop-color:#FFFFFF"/>
						<stop  offset="1" style="stop-color:#FFFFFF;stop-opacity:0"/>
					</radialGradient>
					<path class="st13" d="M578.6,260c-15.3,25.6-80.6,22.6-145.9-6.7s-105.9-73.8-90.6-99.3s80.6-22.6,145.9,6.7
						S593.9,234.4,578.6,260z"/>
				</g>
				<g>
					<defs>
						<rect id="SVGID_35_" x="-4.1" y="3.4" width="769.5" height="334.4"/>
					</defs>
					<clipPath id="SVGID_36_">
						<use xlink:href="#SVGID_35_"  style="overflow:visible;"/>
					</clipPath>
					
						<radialGradient id="SVGID_37_" cx="521.0109" cy="1118.1493" r="96.7" gradientTransform="matrix(1 0 0 1 0 -664)" gradientUnits="userSpaceOnUse">
						<stop  offset="0" style="stop-color:#FFFFFF"/>
						<stop  offset="1" style="stop-color:#FFFFFF;stop-opacity:0"/>
					</radialGradient>
					<path class="st14" d="M453.2,260.2c-15.3,25.6-80.6,22.6-145.9-6.7s-105.9-73.8-90.6-99.3s80.6-22.6,145.9,6.7
						S468.5,234.6,453.2,260.2z"/>
				</g>
				<g>
					<defs>
						<rect id="SVGID_38_" x="-4.1" y="3.4" width="769.5" height="334.4"/>
					</defs>
					<clipPath id="SVGID_39_">
						<use xlink:href="#SVGID_38_"  style="overflow:visible;"/>
					</clipPath>
					
						<radialGradient id="SVGID_40_" cx="-49.2734" cy="-1464.4575" r="96.6744" gradientTransform="matrix(1.22 -0.56 -0.29 -0.48 281.1617 -524.1674)" gradientUnits="userSpaceOnUse">
						<stop  offset="0" style="stop-color:#FFFFFF"/>
						<stop  offset="1" style="stop-color:#FFFFFF;stop-opacity:0"/>
					</radialGradient>
					<path class="st15" d="M762.1,154.5c15.5,25.5-24.6,70.2-89.7,100s-130.3,33.2-145.8,7.7s24.6-70.2,89.7-100
						S746.6,129.1,762.1,154.5z"/>
				</g>
				<g>
					<defs>
						<rect id="SVGID_41_" x="-4.1" y="3.4" width="769.5" height="334.4"/>
					</defs>
					<clipPath id="SVGID_42_">
						<use xlink:href="#SVGID_41_"  style="overflow:visible;"/>
					</clipPath>
					
						<linearGradient id="SVGID_43_" gradientUnits="userSpaceOnUse" x1="440.5909" y1="-575.2307" x2="440.5909" y2="-479.3307" gradientTransform="matrix(1 0 0 -1 0 -321.1814)">
						<stop  offset="0" style="stop-color:#A4C9C9"/>
						<stop  offset="0.5" style="stop-color:#9AC8C5"/>
						<stop  offset="0.99" style="stop-color:#8BC6C0"/>
					</linearGradient>
					<path class="st16" d="M533.6,241.1c-8.1-3.3-9.7-12.5-20.7-13.5c-2.1-0.2-4.3,1-6.5,0.3c-2-0.7-2.9-3.2-4.8-4
						c-3.5-1.3-9.7-0.4-13.3-1c-2-0.3-3-1.3-5.1-1.5c-2.5-0.2-4.3,1.9-6.7,0.9c-3.5-1.4-4.6-7.5-3.6-10.6
						c-6.2-5.5-13.1-1.7-19.7-4.3c-3.7-1.5-5.2-3.9-7.6-5.5c-3.3-2-6.9-3.5-10.6-4.4c0.6-8.6-10.4-8.2-14.9-12c-2.5-2.1-2.8-4-6.6-6
						c-3.1-1.6-5.9-3.7-8.4-6.1c-4.2-3.9-9.2-11.4-15.3-12.1c-3.6-0.4-6.4,2.8-8.8,2.6c-3.2-0.3-5.7-4.2-7.7-6.1
						c-3.2,2.6-6.9,4.1-10.1,6.7c-1.1,0.9-3.8,4-4.9,4.4c-2.5,1-5.1-0.3-5.6-0.1c-4.6,1.5-6.2,6.5-9.5,10.6
						c-3.8,4.8-8.1,9.2-12.8,13c-7.8,6.3-15.9,9.5-24,15.2c-6.4,4.5-12.7,9.5-18.8,14.4c-4.7,3.7-13.5,8.8-16,13.9
						c-0.6,1-1.3,1.9-2,2.8c3.7,4.8,20.1,3.6,26.6,3.8c10.3,0.4,19.8,2.2,29.7,3.3c11.3,1.3,23.9,0,34.6,3.1
						c6.7,1.9,22.6,1.3,27.3,4.8l223.7-5.7C603.7,247.9,540.2,243.7,533.6,241.1z"/>
				</g>
				<g>
					<defs>
						<rect id="SVGID_44_" x="-4.1" y="3.4" width="769.5" height="334.4"/>
					</defs>
					<clipPath id="SVGID_45_">
						<use xlink:href="#SVGID_44_"  style="overflow:visible;"/>
					</clipPath>
					
						<linearGradient id="SVGID_46_" gradientUnits="userSpaceOnUse" x1="371.9909" y1="-575.1907" x2="371.9909" y2="-479.2907" gradientTransform="matrix(1 0 0 -1 0 -321.1814)">
						<stop  offset="0" style="stop-color:#A4C9C9"/>
						<stop  offset="0.26" style="stop-color:#9AC6C6"/>
						<stop  offset="0.7" style="stop-color:#7EBFBE"/>
						<stop  offset="0.99" style="stop-color:#68B9B7"/>
					</linearGradient>
					<path class="st17" d="M406,214.2c0-0.9-2-2.6-1-3.5c9-6.9,6-14.7,0-22.5c-1-0.9-4,1.7-5,0.9c-3-5.2-5-8.7-11-12.1
						c-3.9-2-3.5-8.7-6.9-12.9c-0.4,0.1-0.7,0.1-1.1,0.1c-3.2-0.3-5.7-4.2-7.7-6.1c-3.2,2.6-6.9,4.1-10.1,6.7
						c-1.1,0.9-3.8,4-4.9,4.4c-2.5,1-5.1-0.3-5.6-0.1c-4.6,1.5-6.2,6.5-9.5,10.6c-3.8,4.8-8.1,9.2-12.8,13
						c-7.8,6.3-15.9,9.5-24,15.2c-6.4,4.5-12.7,9.5-18.8,14.4c-4.7,3.7-13.5,8.8-16,13.9c-0.6,1-1.3,1.9-2,2.8
						c3.7,4.8,20.1,3.6,26.6,3.8c10.3,0.4,19.8,2.2,29.7,3.3c11.3,1.3,23.9,0,34.6,3.1c6.7,1.9,22.6,1.3,27.3,4.8l86.5-2.9
						c-13.5-5.8-25.2-14.9-36.1-22.2C428,221.2,418,218.6,406,214.2z"/>
				</g>
				<g>
					<defs>
						<rect id="SVGID_47_" x="-4.1" y="3.4" width="769.5" height="334.4"/>
					</defs>
					<clipPath id="SVGID_48_">
						<use xlink:href="#SVGID_47_"  style="overflow:visible;"/>
					</clipPath>
					
						<linearGradient id="SVGID_49_" gradientUnits="userSpaceOnUse" x1="78.2008" y1="-756.6106" x2="370.3908" y2="-480.3806" gradientTransform="matrix(1 0 0 -1 0 -321.1814)">
						<stop  offset="0" style="stop-color:#A3BDBD"/>
						<stop  offset="0.37" style="stop-color:#99B8B8"/>
						<stop  offset="0.99" style="stop-color:#7EABAB"/>
					</linearGradient>
					<path class="st18" d="M554.8,290.1c-33.3-13.8-69-34.5-104.8-42.3c-10.4-2.3-22.3-3-32.2-6.5c-7.8-2.7-14.4-6.9-22-9.8
						c-26.6-10.2-58.4-15.6-83.1-30.3c-12-7.2-18.1-17.5-26.2-26.7c-3-3.4-11.5-10.3-15.7-10.4c-10.4-0.2-10.2,8.2-22,1.4
						c-12.1-7-22.9-16.1-31.8-26.9c-4.4-5.4-7.7-9.2-15.3-11.1c-3.2-0.8-5.9,0.5-9.7-1.1c-3.6-1.5-5.4-4.6-8.5-6.5
						c-5-3-13.3-7.3-19-8.7c-6.5-1.5-15.3-0.4-22.7-1.1c-17.2-1.5-22.6,2.2-37.2,9.3c-6.4,3.1-14.2,5.2-19.8,9.1
						c-6,4.2-9,11.5-15.2,16.1c-5.3,3.9-13,6.2-18.8,10c-5.7,3.8-11,8.2-15.8,13c-5.3,5.1-8.3,8.4-16.2,9.3
						c-4.2,0.5-8.1-0.3-11.9,0.9s-5.1,3.8-8.3,5c-0.9,0.4-1.8,0.6-2.7,0.7v138c13.3,2.3,26.8,4.1,39.8,6.4
						c25.8,4.5,52.7,2.8,78.8,4.5c25.6,1.7,50.6,2.4,76.3,2.4c51.4,0,102.6-3.6,153.9-6.7c25.7-1.6,50.9-7,76.8-7.2
						c21.6-0.2,43.1-1.2,64.6-2.6c22-1.4,58.6-0.7,77.5-12.8C575.9,297.6,566.1,294.8,554.8,290.1z"/>
				</g>
				<g>
					<defs>
						<rect id="SVGID_50_" x="-4.1" y="3.4" width="769.5" height="334.4"/>
					</defs>
					<clipPath id="SVGID_51_">
						<use xlink:href="#SVGID_50_"  style="overflow:visible;"/>
					</clipPath>
					
						<linearGradient id="SVGID_52_" gradientUnits="userSpaceOnUse" x1="-32.5378" y1="-578.7122" x2="115.0522" y2="-439.1822" gradientTransform="matrix(1 0 0 -1 0 -321.1814)">
						<stop  offset="0" style="stop-color:#A3BDBD"/>
						<stop  offset="0.29" style="stop-color:#99B7B9"/>
						<stop  offset="0.78" style="stop-color:#7DA8B0"/>
						<stop  offset="0.99" style="stop-color:#6FA0AB"/>
					</linearGradient>
					<path class="st19" d="M141.8,110.2c-17.2-1.5-22.6,2.2-37.2,9.3c-6.4,3.1-14.2,5.2-19.8,9.1c-6,4.2-9,11.5-15.2,16.1
						c-5.3,3.9-13,6.2-18.8,10c-5.7,3.8-11,8.2-15.8,13c-5.3,5.1-8.3,8.4-16.2,9.3c-4.2,0.5-8.1-0.3-11.9,0.9s-5.1,3.8-8.3,5
						c-0.9,0.3-1.8,0.5-2.7,0.6V274c16.7-11.1,30.9-24,42.9-40.7c5-6.1,13-7.8,18-13.9c5-6.9,2-17.3,10-21.7s18-2.6,23-9.5
						c5-6.1,2-13,5-19.1c2-3.5,6-3.5,8-6.9c6-6.1-4-13.9,3-19.1s15-2.6,23-7.8c9-5.2,13-11.3,12-21.7
						C140.9,112.4,141.2,111.2,141.8,110.2z"/>
				</g>
				<g>
					<defs>
						<rect id="SVGID_53_" x="-4.1" y="3.4" width="769.5" height="334.4"/>
					</defs>
					<clipPath id="SVGID_54_">
						<use xlink:href="#SVGID_53_"  style="overflow:visible;"/>
					</clipPath>
					
						<linearGradient id="SVGID_55_" gradientUnits="userSpaceOnUse" x1="64.2" y1="-733.2198" x2="263.32" y2="-544.9799" gradientTransform="matrix(1 0 0 -1 0 -321.1814)">
						<stop  offset="0" style="stop-color:#A3BDBD"/>
						<stop  offset="0.29" style="stop-color:#99B9B9"/>
						<stop  offset="0.78" style="stop-color:#7DADB0"/>
						<stop  offset="0.99" style="stop-color:#6FA7AB"/>
					</linearGradient>
					<path class="st20" d="M300.8,292.3c-38-23.4-86-26-119-54.6c-18-14.7,6-33.8-2-48.6c-6-9.5-8-19.1-6-30.3c1-2.6-8-6.1-9-9.5
						c-2-11.3,2-22.5-7-31.2c0-0.9-3-2.6-5-2.6c-0.2-1.8-0.9-3.6-2-5c-3,0-6.1,0-8.9-0.2c-0.7,1.1-1,2.3-1.1,3.5
						c1,10.4-3,16.5-12,21.7c-8,5.2-16,2.6-23,7.8s3,13-3,19.1c-2,3.5-6,3.5-8,6.9c-3,6.1,0,13-5,19.1c-5,6.9-15,5.2-23,9.5
						s-5,14.7-10,21.7c-5,6.1-13,7.8-18,13.9c-12,16.7-26.2,29.6-42.9,40.7v47.4c13.3,2.3,26.8,4.1,39.8,6.4
						c25.8,4.5,52.7,2.8,78.8,4.5c25.6,1.7,50.6,2.4,76.3,2.4c51.4,0,102.6-3.6,153.9-6.7c19.3-1.2,38.3-4.5,57.4-6.2
						c-3.1-1.1-6.2-2-9.4-2.7C359.8,313.9,328.8,309.6,300.8,292.3z"/>
				</g>
				<g>
					<defs>
						<rect id="SVGID_56_" x="-4.1" y="3.4" width="769.5" height="334.4"/>
					</defs>
					<clipPath id="SVGID_57_">
						<use xlink:href="#SVGID_56_"  style="overflow:visible;"/>
					</clipPath>
					
						<linearGradient id="SVGID_58_" gradientUnits="userSpaceOnUse" x1="288.6216" y1="-596.8115" x2="410.7516" y2="-481.3515" gradientTransform="matrix(1 0 0 -1 0 -321.1814)">
						<stop  offset="1.000000e-02" style="stop-color:#6FA7AB"/>
						<stop  offset="0.22" style="stop-color:#7DADB0"/>
						<stop  offset="0.71" style="stop-color:#99B9B9"/>
						<stop  offset="1" style="stop-color:#A3BDBD"/>
					</linearGradient>
					<path class="st21" d="M554.8,290.1c-33.3-13.8-69-34.5-104.8-42.3c-10.4-2.3-22.3-3-32.2-6.5c-7.8-2.7-14.4-6.9-22-9.8
						c-26.6-10.2-58.4-15.6-83.1-30.3c-12-7.2-18.1-17.5-26.2-26.7c-3-3.4-11.5-10.3-15.7-10.4c-10.4-0.2-10.2,8.2-22,1.4
						c-12.1-7-22.9-16.1-31.8-26.9c-4.4-5.4-7.7-9.2-15.3-11.1c-3.2-0.8-5.9,0.5-9.7-1.1c-3.6-1.5-5.4-4.6-8.5-6.5
						c-5-3-13.3-7.3-19-8.7c-2.8-0.6-5.6-0.9-8.5-0.8c16.1,12.6,24.2,31,39.8,42.2c17,11.3,17,25.1,25,39c3,6.1,18,3.5,23,7.8
						c8,8.7,2,26.9,15,31.2c19.7,5.1,39.8,8.9,60,11.3c9,0.9,11,13.9,17,13.9c29,0.9,53,13.9,79,23.4c22,7.8,45,10.4,70,13.9
						c5,0.9,9,4.3,14,6.1c20.7,5.1,41.9,6.9,63.3,7.2l1.5-0.9C575.9,297.6,566.1,294.8,554.8,290.1z"/>
				</g>
				<g>
					<defs>
						<rect id="SVGID_59_" x="-4.1" y="3.4" width="769.5" height="334.4"/>
					</defs>
					<clipPath id="SVGID_60_">
						<use xlink:href="#SVGID_59_"  style="overflow:visible;"/>
					</clipPath>
					
						<radialGradient id="SVGID_61_" cx="32.0076" cy="-1009.4639" r="96.74" gradientTransform="matrix(1.27 -0.13 -9.000000e-02 -0.66 -21.8972 -458.9082)" gradientUnits="userSpaceOnUse">
						<stop  offset="0" style="stop-color:#FFFFFF"/>
						<stop  offset="1" style="stop-color:#FFFFFF;stop-opacity:0"/>
					</radialGradient>
					<path class="st22" d="M233.2,189.4c4.9,35.4-46.2,69.8-114.2,76.9c-68,7.1-127.1-15.8-132-51.2s46.2-69.8,114.2-76.9
						S228.3,154,233.2,189.4z"/>
				</g>
				<g>
					<defs>
						<rect id="SVGID_62_" x="-4.1" y="3.4" width="769.5" height="334.4"/>
					</defs>
					<clipPath id="SVGID_63_">
						<use xlink:href="#SVGID_62_"  style="overflow:visible;"/>
					</clipPath>
					
						<radialGradient id="SVGID_64_" cx="601.1284" cy="-429.1967" r="96.7419" gradientTransform="matrix(1.14 0.51 0.23 -0.39 -278.5959 -216.3809)" gradientUnits="userSpaceOnUse">
						<stop  offset="0" style="stop-color:#FFFFFF"/>
						<stop  offset="1" style="stop-color:#FFFFFF;stop-opacity:0"/>
					</radialGradient>
					<path class="st23" d="M417.9,307.2c-12.4,20.8-71.8,15.6-132.6-11.7s-100-66.3-87.6-87.1s71.8-15.6,132.6,11.6
						C391.1,247.4,430.3,286.4,417.9,307.2z"/>
				</g>
				<g>
					<defs>
						<rect id="SVGID_65_" x="-4.1" y="3.4" width="769.5" height="334.4"/>
					</defs>
					<clipPath id="SVGID_66_">
						<use xlink:href="#SVGID_65_"  style="overflow:visible;"/>
					</clipPath>
					
						<linearGradient id="SVGID_67_" gradientUnits="userSpaceOnUse" x1="655.3868" y1="-608.4948" x2="655.3868" y2="-464.8336" gradientTransform="matrix(1 0 0 -1 0 -321.1814)">
						<stop  offset="0" style="stop-color:#83C1C4"/>
						<stop  offset="1" style="stop-color:#97AFAF"/>
					</linearGradient>
					<path class="st24" d="M769.9,154.1c-4.8-1.2-8,1.9-13.1,0.3c-3.5-1.1-7-6-10-7.8c-4.9-2.9-4.1-4.1-11-1.6
						c-3.5,1.3-8.1,3.6-8.1,7.5c-7.7-1-13.3,11.4-17.8,15.8c-4.2,4-12.2,11.9-11.2,18.1c-6.7,0.6-13.9,2.4-20.6,3.4
						c-7.7,1.1-10.4,2.4-14.4,9.6c-7.8-0.4-13,5-19.8,7.1c-6.5,2-14,2.2-20.8,3.3c-4,0.6-3.6-1.5-8.2,1.2c-2.4,1.4-4.4,6.1-6.2,8.3
						c-4.1,5.1-9.3,11.5-14.8,15.8c-12,9.5-25.9,11.7-41,15.6c-23.4,6-8.9,13.6,8,15.6c15.3,1.8,30.6,2.4,46,1.7
						c13.3-0.6,34.3-4.2,46.8,0.2c2.6,7.3-7,8.1-10.9,12.9c5.6,6.2,33.2,4,42.1,4.3c15.2,0.6,29.7,2.8,45,1.5
						c13.5-1.1,26.4-2.9,40.1-3.2L769.9,154.1L769.9,154.1z"/>
				</g>
				<g>
					<defs>
						<rect id="SVGID_68_" x="-4.1" y="3.4" width="769.5" height="334.4"/>
					</defs>
					<clipPath id="SVGID_69_">
						<use xlink:href="#SVGID_68_"  style="overflow:visible;"/>
					</clipPath>
					
						<linearGradient id="SVGID_70_" gradientUnits="userSpaceOnUse" x1="644.4687" y1="-583.1092" x2="644.4687" y2="-464.8336" gradientTransform="matrix(1 0 0 -1 0 -321.1814)">
						<stop  offset="0" style="stop-color:#7BB9BA"/>
						<stop  offset="1" style="stop-color:#6FA9AF"/>
					</linearGradient>
					<path class="st25" d="M626.8,254.1c12-2.6,24-6.1,35-13c3-1.7,9,1.7,10-1.7c4-8.7,13-14.7,23-10.4c3-12.1,16-18.2,13-31.2
						c0,0,2-3.5,3-3.5c8,2.6,12-2.6,16-6.1c1-1.7-1-6.1,0-6.1c13-6.9,22-13.9,14-26c1-0.9,2-0.9,4-0.9c0-3,1-6.1,3.3-7.7
						c-0.4-0.4-0.8-0.7-1.3-0.9c-4.9-2.9-4.1-4.1-11-1.6c-3.5,1.3-8.1,3.6-8.1,7.5c-7.7-1-13.3,11.4-17.8,15.8
						c-4.2,4-12.2,11.9-11.2,18.1c-6.7,0.6-13.9,2.4-20.6,3.4c-7.7,1.1-10.4,2.4-14.4,9.6c-7.8-0.4-13,5-19.8,7.1
						c-6.5,2-14,2.2-20.8,3.3c-4,0.6-3.6-1.5-8.2,1.2c-2.4,1.4-4.4,6.1-6.2,8.3c-4.1,5.1-9.3,11.5-14.8,15.8
						c-12,9.5-25.9,11.7-41,15.6c-11.3,2.9-13.7,6.2-11.3,9.1C568.2,265.3,598.4,258.9,626.8,254.1z"/>
				</g>
				<g>
					<defs>
						<rect id="SVGID_71_" x="-4.1" y="3.4" width="769.5" height="334.4"/>
					</defs>
					<clipPath id="SVGID_72_">
						<use xlink:href="#SVGID_71_"  style="overflow:visible;"/>
					</clipPath>
				</g>
				<g>
					<defs>
						<rect id="SVGID_73_" x="-4.1" y="3.4" width="769.5" height="334.4"/>
					</defs>
					<clipPath id="SVGID_74_">
						<use xlink:href="#SVGID_73_"  style="overflow:visible;"/>
					</clipPath>
				</g>
				<g>
					<defs>
						<rect id="SVGID_75_" x="-4.1" y="3.4" width="769.5" height="334.4"/>
					</defs>
					<clipPath id="SVGID_76_">
						<use xlink:href="#SVGID_75_"  style="overflow:visible;"/>
					</clipPath>
				</g>
				<g>
					<defs>
						<rect id="SVGID_77_" x="-4.1" y="3.4" width="769.5" height="334.4"/>
					</defs>
					<clipPath id="SVGID_78_">
						<use xlink:href="#SVGID_77_"  style="overflow:visible;"/>
					</clipPath>
					
						<radialGradient id="SVGID_79_" cx="364.2496" cy="-700.0801" r="96.7667" gradientTransform="matrix(1.26 0.2 0.14 -0.66 -174.1119 -233.9987)" gradientUnits="userSpaceOnUse">
						<stop  offset="0" style="stop-color:#FFFFFF"/>
						<stop  offset="1" style="stop-color:#FFFFFF;stop-opacity:0"/>
					</radialGradient>
					<path class="st26" d="M309.2,318.1c-7.2,35.1-67.7,55-135.1,44.6s-116.2-47.3-109-82.4s67.7-55,135.1-44.6
						S316.4,283,309.2,318.1z"/>
				</g>
				<g>
					<defs>
						<rect id="SVGID_80_" x="-4.1" y="3.4" width="769.5" height="334.4"/>
					</defs>
					<clipPath id="SVGID_81_">
						<use xlink:href="#SVGID_80_"  style="overflow:visible;"/>
					</clipPath>
				</g>
				<g>
					<defs>
						<rect id="SVGID_82_" x="-4.1" y="3.4" width="769.5" height="334.4"/>
					</defs>
					<clipPath id="SVGID_83_">
						<use xlink:href="#SVGID_82_"  style="overflow:visible;"/>
					</clipPath>
				</g>
				<g>
					<defs>
						<rect id="SVGID_84_" x="-4.1" y="3.4" width="769.5" height="334.4"/>
					</defs>
					<clipPath id="SVGID_85_">
						<use xlink:href="#SVGID_84_"  style="overflow:visible;"/>
					</clipPath>
				</g>
				<g>
					<defs>
						<rect id="SVGID_86_" x="-4.1" y="3.4" width="769.5" height="334.4"/>
					</defs>
					<clipPath id="SVGID_87_">
						<use xlink:href="#SVGID_86_"  style="overflow:visible;"/>
					</clipPath>
					
						<radialGradient id="SVGID_88_" cx="494.8359" cy="-736.55" r="96.6645" gradientTransform="matrix(1.26 0.2 0.14 -0.66 -174.1119 -233.9987)" gradientUnits="userSpaceOnUse">
						<stop  offset="0" style="stop-color:#FFFFFF"/>
						<stop  offset="1" style="stop-color:#FFFFFF;stop-opacity:0"/>
					</radialGradient>
					<path class="st27" d="M468.8,367.5c-7.2,35.1-67.7,55-135.1,44.6s-116.2-47.3-109-82.4s67.7-55,135.1-44.6
						S476,332.5,468.8,367.5z"/>
				</g>
				<g>
					<defs>
						<rect id="SVGID_89_" x="-4.1" y="3.4" width="769.5" height="334.4"/>
					</defs>
					<clipPath id="SVGID_90_">
						<use xlink:href="#SVGID_89_"  style="overflow:visible;"/>
					</clipPath>
					<path class="st28" d="M575.8,275.8c0,0.2-4,0.3-9,0.3s-9-0.1-9-0.3s4-0.3,9-0.3S575.8,275.6,575.8,275.8z"/>
				</g>
				<g>
					<defs>
						<rect id="SVGID_91_" x="-4.1" y="3.4" width="769.5" height="334.4"/>
					</defs>
					<clipPath id="SVGID_92_">
						<use xlink:href="#SVGID_91_"  style="overflow:visible;"/>
					</clipPath>
					<path class="st29" d="M604.5,281.6c-0.9,0.1-1.8,0.2-2.7,0.2c-1.7,0.1-4,0.1-6.6,0.1s-4.9,0-6.6-0.1c-0.9,0-1.8-0.1-2.7-0.2
						c0.9-0.2,1.8-0.3,2.7-0.2c1.7-0.1,4-0.1,6.6-0.1s4.9,0,6.6,0.1C602.7,281.3,603.6,281.4,604.5,281.6z"/>
				</g>
				<g>
					<defs>
						<rect id="SVGID_93_" x="-4.1" y="3.4" width="769.5" height="334.4"/>
					</defs>
					<clipPath id="SVGID_94_">
						<use xlink:href="#SVGID_93_"  style="overflow:visible;"/>
					</clipPath>
					<path class="st30" d="M619.1,274.1c0,0.2-3,0.3-6.7,0.3s-6.7-0.1-6.7-0.3s3-0.3,6.7-0.3S619.1,273.9,619.1,274.1z"/>
				</g>
				<g>
					<defs>
						<rect id="SVGID_95_" x="-4.1" y="3.4" width="769.5" height="334.4"/>
					</defs>
					<clipPath id="SVGID_96_">
						<use xlink:href="#SVGID_95_"  style="overflow:visible;"/>
					</clipPath>
					<path class="st31" d="M615.8,294.9c-1.3,0.2-2.7,0.3-4,0.2c-2.5,0.1-5.9,0.1-9.7,0.1s-7.2,0-9.7-0.1c-1.3,0-2.7-0.1-4-0.2
						c1.3-0.1,2.7-0.2,4-0.2c2.5-0.1,5.9-0.1,9.7-0.1s7.2,0,9.7,0.1C613.1,294.6,614.5,294.7,615.8,294.9z"/>
				</g>
				<g>
					<defs>
						<rect id="SVGID_97_" x="-4.1" y="3.4" width="769.5" height="334.4"/>
					</defs>
					<clipPath id="SVGID_98_">
						<use xlink:href="#SVGID_97_"  style="overflow:visible;"/>
					</clipPath>
					<path class="st32" d="M655.1,295.4c-0.9,0.2-1.9,0.3-2.8,0.2c-1.8,0.1-4.2,0.1-6.8,0.1s-5.1,0-6.8-0.1c-0.9,0-1.9-0.1-2.8-0.2
						c0.9-0.1,1.9-0.2,2.8-0.2c1.8-0.1,4.2-0.1,6.8-0.1s5.1,0,6.8,0.1S655.1,295.4,655.1,295.4z"/>
				</g>
				<g>
					<defs>
						<rect id="SVGID_99_" x="-4.1" y="3.4" width="769.5" height="334.4"/>
					</defs>
					<clipPath id="SVGID_100_">
						<use xlink:href="#SVGID_99_"  style="overflow:visible;"/>
					</clipPath>
					<path class="st33" d="M699.1,296.6c-1.3,0.1-2.5,0.2-3.8,0.2c-2.4,0.1-5.6,0.1-9.2,0.1s-6.8,0-9.2-0.1c-1.3,0-2.5-0.1-3.8-0.2
						c1.3-0.2,2.5-0.3,3.8-0.2c2.4-0.1,5.6-0.1,9.2-0.1s6.8,0,9.2,0.1C696.6,296.3,697.8,296.4,699.1,296.6z"/>
				</g>
				<g>
					<defs>
						<rect id="SVGID_101_" x="-4.1" y="3.4" width="769.5" height="334.4"/>
					</defs>
					<clipPath id="SVGID_102_">
						<use xlink:href="#SVGID_101_"  style="overflow:visible;"/>
					</clipPath>
					<path class="st34" d="M640.5,306.4c-1.4,0.2-2.7,0.3-4.1,0.2c-2.5,0.1-6,0.1-9.9,0.1s-7.4,0-9.9-0.1c-1.4,0-2.7-0.1-4.1-0.2
						c1.4-0.1,2.7-0.2,4.1-0.2c2.5-0.1,6-0.1,9.9-0.1s7.4,0,9.9,0.1C637.8,306.2,639.1,306.3,640.5,306.4z"/>
				</g>
				<g>
					<defs>
						<rect id="SVGID_103_" x="-4.1" y="3.4" width="769.5" height="334.4"/>
					</defs>
					<clipPath id="SVGID_104_">
						<use xlink:href="#SVGID_103_"  style="overflow:visible;"/>
					</clipPath>
					<path class="st35" d="M665.8,303.5c0,0.2-1.6,0.3-3.7,0.3s-3.7-0.1-3.7-0.3s1.6-0.3,3.7-0.3
						C663.3,303.2,664.6,303.3,665.8,303.5z"/>
				</g>
				<g>
					<defs>
						<rect id="SVGID_105_" x="-4.1" y="3.4" width="769.5" height="334.4"/>
					</defs>
					<clipPath id="SVGID_106_">
						<use xlink:href="#SVGID_105_"  style="overflow:visible;"/>
					</clipPath>
					<path class="st36" d="M629.8,300.1c0,0.2-2.7,0.3-6,0.3s-6-0.1-6-0.3s2.7-0.3,6-0.3S629.8,299.9,629.8,300.1z"/>
				</g>
				<g>
					<defs>
						<rect id="SVGID_107_" x="-4.1" y="3.4" width="769.5" height="334.4"/>
					</defs>
					<clipPath id="SVGID_108_">
						<use xlink:href="#SVGID_107_"  style="overflow:visible;"/>
					</clipPath>
					<path class="st37" d="M590.5,320.3c-0.4,0.1-0.9,0.1-1.3,0.1c-0.8,0-2.1,0.1-3.6,0.1c-3,0.1-7.2,0.1-11.8,0.1s-8.8,0-11.8-0.1
						c-1.5,0-2.7-0.1-3.6-0.1c-0.4,0-0.9,0-1.3-0.1c0.4-0.1,0.9-0.1,1.3-0.1c0.8,0,2.1-0.1,3.6-0.1c3-0.1,7.2-0.1,11.8-0.1
						s8.8,0,11.8,0.1c1.5,0,2.7,0.1,3.6,0.1C589.6,320.2,590.1,320.2,590.5,320.3z"/>
				</g>
				<g>
					<defs>
						<rect id="SVGID_109_" x="-4.1" y="3.4" width="769.5" height="334.4"/>
					</defs>
					<clipPath id="SVGID_110_">
						<use xlink:href="#SVGID_109_"  style="overflow:visible;"/>
					</clipPath>
					<path class="st38" d="M605.1,312.2c-1.2,0.1-2.5,0.2-3.7,0.2c-2.3,0.1-5.5,0.1-9,0.1s-6.7,0-9-0.1c-1.2,0-2.5-0.1-3.7-0.2
						c1.2-0.2,2.5-0.3,3.7-0.2c2.3-0.1,5.5-0.1,9-0.1s6.7,0,9,0.1C602.6,312,603.9,312.1,605.1,312.2z"/>
				</g>
				<g>
					<defs>
						<rect id="SVGID_111_" x="-4.1" y="3.4" width="769.5" height="334.4"/>
					</defs>
					<clipPath id="SVGID_112_">
						<use xlink:href="#SVGID_111_"  style="overflow:visible;"/>
					</clipPath>
					<ellipse class="st39" cx="503.1" cy="256.1" rx="6" ry="0.3"/>
				</g>
				<g>
					<defs>
						<rect id="SVGID_113_" x="-4.1" y="3.4" width="769.5" height="334.4"/>
					</defs>
					<clipPath id="SVGID_114_">
						<use xlink:href="#SVGID_113_"  style="overflow:visible;"/>
					</clipPath>
					<path class="st40" d="M529.1,254.4c0,0.2-2.5,0.3-5.7,0.3s-5.7-0.1-5.7-0.3s2.5-0.3,5.7-0.3S529.1,254.2,529.1,254.4z"/>
				</g>
				<g>
					<defs>
						<rect id="SVGID_115_" x="-4.1" y="3.4" width="769.5" height="334.4"/>
					</defs>
					<clipPath id="SVGID_116_">
						<use xlink:href="#SVGID_115_"  style="overflow:visible;"/>
					</clipPath>
					<path class="st41" d="M517.1,261.3c0,0.2-2.7,0.3-6,0.3s-6-0.1-6-0.3s2.7-0.3,6-0.3S517.1,261.2,517.1,261.3z"/>
				</g>
				<g>
					<defs>
						<rect id="SVGID_117_" x="-4.1" y="3.4" width="769.5" height="334.4"/>
					</defs>
					<clipPath id="SVGID_118_">
						<use xlink:href="#SVGID_117_"  style="overflow:visible;"/>
					</clipPath>
					<ellipse class="st42" cx="531.1" cy="260.8" rx="4" ry="0.3"/>
				</g>
				<g>
					<defs>
						<rect id="SVGID_119_" x="-4.1" y="3.4" width="769.5" height="334.4"/>
					</defs>
					<clipPath id="SVGID_120_">
						<use xlink:href="#SVGID_119_"  style="overflow:visible;"/>
					</clipPath>
					<path class="st43" d="M547.8,264.8c0,0.2-2.5,0.3-5.7,0.3s-5.7-0.1-5.7-0.3s2.5-0.3,5.7-0.3S547.8,264.6,547.8,264.8z"/>
				</g>
				<g>
					<defs>
						<rect id="SVGID_121_" x="-4.1" y="3.4" width="769.5" height="334.4"/>
					</defs>
					<clipPath id="SVGID_122_">
						<use xlink:href="#SVGID_121_"  style="overflow:visible;"/>
					</clipPath>
					<path class="st44" d="M527.1,266.5c0,0.2-1.5,0.3-3.3,0.3s-3.3-0.1-3.3-0.3s1.5-0.3,3.3-0.3C524.9,266.2,526,266.3,527.1,266.5
						z"/>
				</g>
				<g>
					<defs>
						<rect id="SVGID_123_" x="-4.1" y="3.4" width="769.5" height="334.4"/>
					</defs>
					<clipPath id="SVGID_124_">
						<use xlink:href="#SVGID_123_"  style="overflow:visible;"/>
					</clipPath>
					<path class="st45" d="M570.5,271.7c0,0.2-2.2,0.3-5,0.3s-5-0.1-5-0.3s2.2-0.3,5-0.3C567.2,271.4,568.8,271.5,570.5,271.7z"/>
				</g>
				<g>
					<defs>
						<rect id="SVGID_125_" x="-4.1" y="3.4" width="769.5" height="334.4"/>
					</defs>
					<clipPath id="SVGID_126_">
						<use xlink:href="#SVGID_125_"  style="overflow:visible;"/>
					</clipPath>
					<path class="st46" d="M589.8,273.5c0,0.2-1.5,0.3-3.3,0.3s-3.3-0.1-3.3-0.3s1.5-0.3,3.3-0.3S589.8,273.3,589.8,273.5z"/>
				</g>
				<g>
					<defs>
						<rect id="SVGID_127_" x="-4.1" y="3.4" width="769.5" height="334.4"/>
					</defs>
					<clipPath id="SVGID_128_">
						<use xlink:href="#SVGID_127_"  style="overflow:visible;"/>
					</clipPath>
					<path class="st47" d="M625.8,281.6c0,0.2-1.9,0.3-4.3,0.3s-4.3-0.1-4.3-0.3s1.9-0.3,4.3-0.3S625.8,281.4,625.8,281.6z"/>
				</g>
				<g>
					<defs>
						<rect id="SVGID_129_" x="-4.1" y="3.4" width="769.5" height="334.4"/>
					</defs>
					<clipPath id="SVGID_130_">
						<use xlink:href="#SVGID_129_"  style="overflow:visible;"/>
					</clipPath>
					<path class="st48" d="M627.1,287.3c0,0.2-1,0.3-2.3,0.3s-2.3-0.1-2.3-0.3s1-0.3,2.3-0.3C625.6,287,626.3,287.1,627.1,287.3z"/>
				</g>
				<g>
					<defs>
						<rect id="SVGID_131_" x="-4.1" y="3.4" width="769.5" height="334.4"/>
					</defs>
					<clipPath id="SVGID_132_">
						<use xlink:href="#SVGID_131_"  style="overflow:visible;"/>
					</clipPath>
					<path class="st49" d="M572.5,286.8c0,0.2-4,0.3-9,0.3s-9-0.1-9-0.3s4-0.3,9-0.3S572.5,286.6,572.5,286.8z"/>
				</g>
				<g>
					<defs>
						<rect id="SVGID_133_" x="-4.1" y="3.4" width="769.5" height="334.4"/>
					</defs>
					<clipPath id="SVGID_134_">
						<use xlink:href="#SVGID_133_"  style="overflow:visible;"/>
					</clipPath>
					<path class="st50" d="M555.1,327.8c0,0.2-2.7,0.3-6,0.3s-6-0.1-6-0.3s2.7-0.3,6-0.3C551.1,327.4,553.1,327.5,555.1,327.8z"/>
				</g>
				<g>
					<defs>
						<rect id="SVGID_135_" x="-4.1" y="3.4" width="769.5" height="334.4"/>
					</defs>
					<clipPath id="SVGID_136_">
						<use xlink:href="#SVGID_135_"  style="overflow:visible;"/>
					</clipPath>
					<path class="st51" d="M508.5,324.3c0,0.2-3.1,0.3-7,0.3s-7-0.1-7-0.3s3.1-0.3,7-0.3S508.5,324.2,508.5,324.3z"/>
				</g>
				<g>
					<defs>
						<rect id="SVGID_137_" x="-4.1" y="3.4" width="769.5" height="334.4"/>
					</defs>
					<clipPath id="SVGID_138_">
						<use xlink:href="#SVGID_137_"  style="overflow:visible;"/>
					</clipPath>
					<path class="st52" d="M538.5,322c0,0.2-3.9,0.3-8.7,0.3s-8.7-0.1-8.7-0.3s3.9-0.3,8.7-0.3C532.7,321.6,535.6,321.7,538.5,322z"
						/>
				</g>
				<g>
					<defs>
						<rect id="SVGID_139_" x="-4.1" y="3.4" width="769.5" height="334.4"/>
					</defs>
					<clipPath id="SVGID_140_">
						<use xlink:href="#SVGID_139_"  style="overflow:visible;"/>
					</clipPath>
					<path class="st53" d="M517.1,330.1c0,0.2-1.3,0.3-3,0.3s-3-0.1-3-0.3s1.3-0.3,3-0.3C515.1,329.7,516.1,329.8,517.1,330.1z"/>
				</g>
				<g>
					<defs>
						<rect id="SVGID_141_" x="-4.1" y="3.4" width="769.5" height="334.4"/>
					</defs>
					<clipPath id="SVGID_142_">
						<use xlink:href="#SVGID_141_"  style="overflow:visible;"/>
					</clipPath>
					<path class="st54" d="M587.1,329c0,0.2-1.6,0.3-3.7,0.3s-3.7-0.1-3.7-0.3s1.6-0.3,3.7-0.3S587.1,328.8,587.1,329z"/>
				</g>
				<g>
					<defs>
						<rect id="SVGID_143_" x="-4.1" y="3.4" width="769.5" height="334.4"/>
					</defs>
					<clipPath id="SVGID_144_">
						<use xlink:href="#SVGID_143_"  style="overflow:visible;"/>
					</clipPath>
					<path class="st55" d="M577.1,326.1c0,0.2-3.7,0.3-8.3,0.3s-8.3-0.1-8.3-0.3s3.7-0.3,8.3-0.3S577.1,325.9,577.1,326.1z"/>
				</g>
				<g>
					<defs>
						<rect id="SVGID_145_" x="-4.1" y="3.4" width="769.5" height="334.4"/>
					</defs>
					<clipPath id="SVGID_146_">
						<use xlink:href="#SVGID_145_"  style="overflow:visible;"/>
					</clipPath>
					<path class="st56" d="M645.1,322c-0.5,0.1-1.1,0.1-1.6,0.1c-1,0-2.5,0.1-4.3,0.1c-3.6,0.1-8.6,0.1-14.1,0.1s-10.5,0-14.1-0.1
						c-1.8,0-3.3-0.1-4.3-0.1c-0.5,0-1.1,0-1.6-0.1c0.5-0.1,1.1-0.1,1.6-0.1c1,0,2.5-0.1,4.3-0.1c3.6-0.1,8.6-0.1,14.1-0.1
						s10.5,0,14.1,0.1c1.8,0,3.3,0.1,4.3,0.1S645.1,322,645.1,322z"/>
				</g>
				<g>
					<defs>
						<rect id="SVGID_147_" x="-4.1" y="3.4" width="769.5" height="334.4"/>
					</defs>
					<clipPath id="SVGID_148_">
						<use xlink:href="#SVGID_147_"  style="overflow:visible;"/>
					</clipPath>
					<path class="st57" d="M674.5,290.8c0,0.2-3.4,0.3-7.7,0.3s-7.7-0.1-7.7-0.3s3.4-0.3,7.7-0.3
						C669.4,290.4,671.9,290.5,674.5,290.8z"/>
				</g>
				<g>
					<defs>
						<rect id="SVGID_149_" x="-4.1" y="3.4" width="769.5" height="334.4"/>
					</defs>
					<clipPath id="SVGID_150_">
						<use xlink:href="#SVGID_149_"  style="overflow:visible;"/>
					</clipPath>
					<path class="st58" d="M649.8,276.4c0,0.2-3.1,0.3-7,0.3s-7-0.1-7-0.3s3.1-0.3,7-0.3S649.8,276.2,649.8,276.4z"/>
				</g>
				<g>
					<defs>
						<rect id="SVGID_151_" x="-4.1" y="3.4" width="769.5" height="334.4"/>
					</defs>
					<clipPath id="SVGID_152_">
						<use xlink:href="#SVGID_151_"  style="overflow:visible;"/>
					</clipPath>
					<rect x="7.8" y="-95" class="st59" width="750" height="500"/>
				</g>
			</g>
			<rect x="-4.1" y="3.4" class="st60" width="774.1" height="280.3"/>
		</g>
	</g>
</g>
</svg>
