<?xml version="1.0" encoding="utf-8"?>
<!-- Generator: Adobe Illustrator 23.0.5, SVG Export Plug-In . SVG Version: 6.00 Build 0)  -->
<svg version="1.1" id="Capa_1" xmlns="http://www.w3.org/2000/svg" xmlns:xlink="http://www.w3.org/1999/xlink" x="0px" y="0px"
	 viewBox="0 0 799.9 799.9" style="enable-background:new 0 0 799.9 799.9;" xml:space="preserve">
<style type="text/css">
	.st0{clip-path:url(#SVGID_2_);fill-rule:evenodd;clip-rule:evenodd;fill:#BCD4D4;}
	.st1{clip-path:url(#SVGID_2_);}
	.st2{fill-rule:evenodd;clip-rule:evenodd;fill:#F85A68;}
	.st3{fill-rule:evenodd;clip-rule:evenodd;fill:#F99393;}
	.st4{fill-rule:evenodd;clip-rule:evenodd;fill:#FF7979;}
	.st5{fill-rule:evenodd;clip-rule:evenodd;fill:#FCACAC;}
	.st6{fill-rule:evenodd;clip-rule:evenodd;fill:#FFFFFF;}
	.st7{fill-rule:evenodd;clip-rule:evenodd;fill:#EAEAEA;}
	.st8{fill-rule:evenodd;clip-rule:evenodd;fill:#D0D0D0;}
	.st9{fill-rule:evenodd;clip-rule:evenodd;fill:#76757B;}
	.st10{fill-rule:evenodd;clip-rule:evenodd;fill:#FFD800;}
	.st11{fill-rule:evenodd;clip-rule:evenodd;fill:#F5E6B6;}
	.st12{fill-rule:evenodd;clip-rule:evenodd;fill:#F4DE9F;}
	.st13{fill-rule:evenodd;clip-rule:evenodd;fill:#FFBE76;}
	.st14{fill-rule:evenodd;clip-rule:evenodd;fill:#F0B16C;}
	.st15{fill-rule:evenodd;clip-rule:evenodd;fill:#F5D5B3;}
	.st16{fill-rule:evenodd;clip-rule:evenodd;fill:#C78B4C;}
	.st17{fill-rule:evenodd;clip-rule:evenodd;fill:#427C7B;}
</style>
<g>
	<defs>
		<circle id="SVGID_1_" cx="400" cy="400" r="400"/>
	</defs>
	<clipPath id="SVGID_2_">
		<use xlink:href="#SVGID_1_"  style="overflow:visible;"/>
	</clipPath>
	<rect y="0" class="st0" width="799.9" height="799.9"/>
	<g class="st1">
		<g>
			<path class="st2" d="M458.5,612.7l-56.4,129.7l-57.6-129L342,94c-0.1-17.1,13.8-31.2,30.9-31.3l51.8-0.3
				c17.1-0.1,31.2,13.8,31.2,30.9L458.5,612.7z"/>
			<path class="st3" d="M380.7,235.2L380,93.8c-0.1-17.1,4.5-31.1,10.2-31.2l17.3-0.1c5.7,0,10.4,13.9,10.5,31l0.7,141.4
				L380.7,235.2z"/>
			<path class="st4" d="M407.4,62.5l17.3-0.1c17.1-0.1,31.2,13.8,31.2,30.9l0.7,141.4l-38,0.2L418,93.6
				C417.9,76.5,413.1,62.5,407.4,62.5z"/>
			<path class="st5" d="M342.7,235.4L342,94c-0.1-17.1,13.8-31.2,30.9-31.3l17.3-0.1c-5.7,0-10.3,14.1-10.2,31.2l0.7,141.4
				L342.7,235.4z"/>
			<path class="st6" d="M458.5,612.7l-56.4,129.7l-57.6-129l-2.5-495.5c40.1-7.1,77.8-7,114-0.7L458.5,612.7z"/>
			<g>
				<path class="st7" d="M342.1,117.9l0.4,74.3l38-0.2l-0.4-78.7C367.6,114.1,355,115.6,342.1,117.9z"/>
				<path class="st8" d="M418,112.9l0.4,78.8l-38,0.2l-0.4-78.7C392.9,112.4,405.6,112.3,418,112.9z"/>
				<path class="st9" d="M418,112.9l0.4,78.8l38-0.2l-0.4-74.3C443.6,115,430.9,113.6,418,112.9z"/>
			</g>
			<path class="st10" d="M458.5,612.7l-56.4,129.7l-57.6-129l-2.3-459.2c40.3-7.5,78-7.4,114-0.7L458.5,612.7z"/>
			<g>
				<path class="st11" d="M342.3,154.3l2.3,459.2l14.5,32.5l23.6-0.1l-2.5-496.4C367.8,150.2,355.2,151.8,342.3,154.3z"/>
				<path class="st12" d="M418.2,149l2.5,496.5l-38,0.2l-2.5-496.4C393.1,148.4,405.8,148.3,418.2,149z"/>
				<path class="st13" d="M418.2,149l2.5,496.5l23.6-0.1l14.2-32.6l-2.3-459.2C443.8,151.2,431.1,149.7,418.2,149z"/>
			</g>
			<path class="st14" d="M458.5,612.7l-56.4,129.6l-57.6-129c18.1-3.5,37.2-5.4,57-5.5C421.3,607.8,440.4,609.5,458.5,612.7z"/>
			<g>
				<path class="st15" d="M344.5,613.4l57.6,129l-19.7-133.8C369.5,609.4,356.8,611.1,344.5,613.4z"/>
				<path class="st14" d="M382.5,608.6l19.7,133.8l18.3-134c-6.3-0.3-12.6-0.5-19-0.4C395.1,607.9,388.8,608.2,382.5,608.6z"/>
				<path class="st16" d="M420.5,608.4l-18.3,134l56.4-129.6C446.3,610.5,433.6,609.1,420.5,608.4z"/>
			</g>
			<path class="st17" d="M420.8,699.6l-18.6,42.8l-19-42.6c6-1.1,12.3-1.8,18.8-1.8C408.5,697.9,414.8,698.5,420.8,699.6z"/>
		</g>
	</g>
</g>
</svg>
