<?xml version="1.0" encoding="utf-8"?>
<!-- Generator: Adobe Illustrator 23.0.5, SVG Export Plug-In . SVG Version: 6.00 Build 0)  -->
<svg version="1.1" id="Capa_1" xmlns="http://www.w3.org/2000/svg" xmlns:xlink="http://www.w3.org/1999/xlink" x="0px" y="0px"
	 viewBox="0 0 512 512" style="enable-background:new 0 0 512 512;" xml:space="preserve">
<style type="text/css">
	.st0{fill:#A7CBCB;}
	.st1{fill:#86BDBD;}
	.st2{fill:#636978;}
	.st3{fill:#414952;}
	.st4{fill:#FFFFFF;}
	.st5{fill:#E9EDF5;}
</style>
<g>
	<g>
		<g>
			<g>
				<g>
					<g>
						<g>
							<g>
								<g>
									<g>
										<g>
											<g>
												<g>
													<g>
														<g>
															<g>
																<g>
																	<g>
																		<g>
																			<g>
																				<g>
																					<g>
																						<g>
																							<circle class="st0" cx="256" cy="256" r="256"/>
																						</g>
																					</g>
																				</g>
																			</g>
																		</g>
																	</g>
																</g>
															</g>
														</g>
													</g>
												</g>
											</g>
										</g>
									</g>
								</g>
							</g>
						</g>
					</g>
				</g>
			</g>
		</g>
	</g>
	<path class="st1" d="M510.6,249.1c0-1.8,0-3.7-0.1-5.5l-81.3-87.2l-18,23.6L312.1,73.6L134,413.5l82.2,88.2
		c17.1,4.1,34.9,6.3,53.1,6.3C402.6,508,510.6,392.1,510.6,249.1z"/>
	<g>
		<path class="st2" d="M318,424.4H160.8c-12.8,0-23.1-10.3-23.1-23.1V98.7c0-12.8,10.3-23.1,23.1-23.1H318
			c12.8,0,23.1,10.3,23.1,23.1v302.6C341.1,414,330.8,424.4,318,424.4z"/>
	</g>
	<g>
		<path class="st3" d="M318,75.6h-78.3v348.7H318c12.8,0,23.1-10.3,23.1-23.1V98.7C341.1,86,330.8,75.6,318,75.6L318,75.6z"/>
	</g>
	<g>
		<path class="st4" d="M158.8,99.3H320v290.8H158.8L158.8,99.3z"/>
	</g>
	<g>
		<path class="st5" d="M239.7,99.3H320v290.8h-80.2V99.3z"/>
	</g>
</g>
</svg>
